<?xml version="1.0" encoding="UTF-8" standalone="no"?>
<!-- Created with Inkscape (http://www.inkscape.org/) -->

<svg
   width="128.59825mm"
   height="118.81215mm"
   viewBox="0 0 128.59825 118.81215"
   version="1.1"
   id="svg5"
   inkscape:version="1.1.2 (b8e25be833, 2022-02-05)"
   sodipodi:docname="automatic-forklift.svg"
   xmlns:inkscape="http://www.inkscape.org/namespaces/inkscape"
   xmlns:sodipodi="http://sodipodi.sourceforge.net/DTD/sodipodi-0.dtd"
   xmlns="http://www.w3.org/2000/svg"
   xmlns:svg="http://www.w3.org/2000/svg">
  <sodipodi:namedview
     id="namedview7"
     pagecolor="#dbdbdb"
     bordercolor="#eeeeee"
     borderopacity="1"
     inkscape:pageshadow="0"
     inkscape:pageopacity="0"
     inkscape:pagecheckerboard="0"
     inkscape:document-units="mm"
     showgrid="false"
     fit-margin-top="0"
     fit-margin-left="0"
     fit-margin-right="0"
     fit-margin-bottom="0"
     inkscape:zoom="0.6186298"
     inkscape:cx="132.551"
     inkscape:cy="345.92578"
     inkscape:window-width="1920"
     inkscape:window-height="1009"
     inkscape:window-x="-8"
     inkscape:window-y="-8"
     inkscape:window-maximized="1"
     inkscape:current-layer="layer1"
     inkscape:lockguides="true" />
  <defs
     id="defs2" />
  <g
     inkscape:label="Layer 1"
     inkscape:groupmode="layer"
     id="layer1"
     transform="translate(-36.095592,-14.319643)">
    <rect
       style="fill:#c8beb7;fill-opacity:1;stroke:none;stroke-width:3.46759;stroke-linecap:round;stroke-linejoin:round;stroke-miterlimit:4;stroke-dasharray:none;stroke-dashoffset:0;stroke-opacity:1"
       id="rect13710-8"
       width="45.685013"
       height="11.321702"
       x="66.500801"
       y="119.48461"
       ry="4.7428699" />
    <rect
       style="fill:#c8beb7;fill-opacity:1;stroke:none;stroke-width:2.065;stroke-linecap:round;stroke-linejoin:round;stroke-miterlimit:4;stroke-dasharray:none;stroke-dashoffset:0;stroke-opacity:1"
       id="rect13708"
       width="21.18858"
       height="5.8127966"
       x="51.190113"
       y="125.06888"
       ry="2.9063983" />
    <rect
       style="fill:#c8beb7;fill-opacity:1;stroke:none;stroke-width:2.01427;stroke-linecap:round;stroke-linejoin:round;stroke-miterlimit:4;stroke-dasharray:none;stroke-dashoffset:0;stroke-opacity:1"
       id="rect13710"
       width="25.155771"
       height="6.9378538"
       x="95.032043"
       y="125.98009"
       ry="2.906395" />
    <path
       style="fill:none;stroke:#000000;stroke-width:2.065;stroke-linecap:round;stroke-linejoin:miter;stroke-miterlimit:4;stroke-dasharray:none;stroke-opacity:1"
       d="m 72.156047,67.791613 c 0,0 -0.906128,-6.417753 -2.432838,-9.916902 -1.884445,-4.319059 -3.910172,-8.014756 -8.606973,-8.396141 -2.451407,-0.199057 -2.996618,1.702798 -2.996618,1.702798"
       id="path10219"
       sodipodi:nodetypes="cssc" />
    <path
       id="rect8638-5"
       style="fill:#deaa87;fill-opacity:1;stroke:none;stroke-width:5.36934;stroke-linecap:square;stroke-linejoin:round;stroke-miterlimit:4;stroke-dasharray:none;stroke-dashoffset:0;stroke-opacity:1"
       d="m 452.68945,179.54102 c -1.28785,-0.0387 -2.35288,0.96792 -2.38867,2.25586 l -2.9707,106.9082 c -0.0358,1.28794 0.97191,2.35585 2.25976,2.39453 l 114.00196,3.42187 c 1.28785,0.0387 2.35288,-0.96596 2.38867,-2.2539 l 2.9707,-106.9082 c 0.0358,-1.28794 -0.97191,-2.35586 -2.25976,-2.39454 z"
       transform="scale(0.26458333)" />
    <path
       id="rect8638-5-8"
       style="fill:#d38d5f;fill-opacity:1;stroke:none;stroke-width:0.977513;stroke-linecap:square;stroke-linejoin:round;stroke-miterlimit:4;stroke-dasharray:none;stroke-dashoffset:0;stroke-opacity:1"
       d="m 124.16956,52.288712 c -0.24247,-0.0068 -0.44298,0.170394 -0.44972,0.397125 l -0.5593,18.820206 c -0.006,0.22673 0.18298,0.414726 0.42545,0.421534 l 21.46332,0.60239 c 0.24246,0.0068 0.44298,-0.170049 0.44972,-0.39678 l 0.5593,-18.820205 c 0.006,-0.22673 -0.18298,-0.414728 -0.42545,-0.421537 z" />
    <rect
       style="fill:#d38d5f;fill-opacity:1;stroke:none;stroke-width:1.6;stroke-linecap:square;stroke-linejoin:round;stroke-miterlimit:4;stroke-dasharray:none;stroke-dashoffset:0;stroke-opacity:1"
       id="rect8638"
       width="36.064289"
       height="32.616959"
       x="125.79007"
       y="76.839912"
       ry="0.67972255"
       transform="rotate(-0.18643899)" />
    <path
       id="rect8638-5-5-0-9"
       style="fill:#d38d5f;fill-opacity:1;stroke:none;stroke-width:0.273647;stroke-linecap:square;stroke-linejoin:round;stroke-miterlimit:4;stroke-dasharray:none;stroke-dashoffset:0;stroke-opacity:1"
       d="m 120.48549,74.223827 c -0.19042,0.0035 -0.37911,0.0794 -0.44597,0.186441 l -1.27507,2.817514 c 0.0387,-8.98e-4 0.0777,-0.0019 0.11678,-0.0019 l 28.73395,0.07012 2.1391,-0.290415 c 0.0764,-0.122338 0.18551,-1.645637 -0.0305,-1.6663 L 120.56663,74.22692 c -0.0269,-0.0026 -0.0539,-0.0036 -0.0811,-0.0031 z"
       sodipodi:nodetypes="cccscccccc" />
    <rect
       style="fill:#c87137;fill-opacity:1;stroke:none;stroke-width:0.469175;stroke-linecap:square;stroke-linejoin:round;stroke-miterlimit:4;stroke-dasharray:none;stroke-dashoffset:0;stroke-opacity:1"
       id="rect8638-6"
       width="22.504704"
       height="4.4944596"
       x="124.43067"
       y="77.071678"
       ry="1.1962212"
       transform="matrix(0.99999173,-0.00406772,0.01808474,0.99983646,0,0)" />
    <rect
       style="fill:#c87137;fill-opacity:1;stroke:none;stroke-width:0.588691;stroke-linecap:square;stroke-linejoin:round;stroke-miterlimit:4;stroke-dasharray:none;stroke-dashoffset:0;stroke-opacity:1"
       id="rect8638-6-1"
       width="35.424923"
       height="4.4951806"
       x="123.91203"
       y="104.53871"
       ry="1.1964132"
       transform="matrix(0.9999999,-4.564266e-4,0.02319227,0.99973102,0,0)" />
    <rect
       style="fill:#1a1a1a;fill-opacity:1;stroke:none;stroke-width:1.51072;stroke-linecap:square;stroke-linejoin:round;stroke-miterlimit:4;stroke-dasharray:none;stroke-dashoffset:0;stroke-opacity:1"
       id="rect5591"
       width="53.300892"
       height="50.118748"
       x="63.64286"
       y="72.658928" />
    <rect
       style="fill:#1a1a1a;fill-opacity:1;stroke:none;stroke-width:1.6;stroke-linecap:square;stroke-linejoin:round;stroke-miterlimit:4;stroke-dasharray:none;stroke-dashoffset:0;stroke-opacity:1"
       id="rect7535"
       width="7.5003824"
       height="19.688505"
       x="97.317459"
       y="51.565128"
       ry="1.0607145" />
    <path
       id="rect5591-9"
       style="fill:#1a1a1a;fill-opacity:1;stroke:none;stroke-width:4.99306;stroke-linecap:square;stroke-linejoin:round;stroke-miterlimit:4;stroke-dasharray:none;stroke-dashoffset:0;stroke-opacity:1"
       d="m 161.24219,184.91602 c -4.16435,0 -7.51758,3.35127 -7.51758,7.51562 v 160.35938 c 0,4.16434 3.35323,7.51757 7.51758,7.51757 h 151.33984 c 4.16435,0 7.51563,-3.35323 7.51563,-7.51757 l 0.35435,-115.74164 -5.90709,-1.22907 c -1.28783,-0.0387 -2.29378,-1.10659 -2.25976,-2.39453 l 1.3457,-48.42969 c -0.34391,-0.0478 -0.69135,-0.0801 -1.04883,-0.0801 z"
       sodipodi:nodetypes="ssssssccccss"
       transform="matrix(0.26458333,0,0,0.26458333,36.095592,14.319643)" />
    <rect
       style="fill:#4d4d4d;fill-opacity:1;stroke:none;stroke-width:1.56397;stroke-linecap:square;stroke-linejoin:round;stroke-miterlimit:4;stroke-dasharray:none;stroke-dashoffset:0;stroke-opacity:1"
       id="rect5991"
       width="4.7732143"
       height="100.58815"
       x="113.28297"
       y="16.111031"
       ry="2.0626051"
       transform="rotate(-0.88246807)" />
    <circle
       style="fill:#1a1a1a;fill-opacity:1;stroke:none;stroke-width:1.30233;stroke-linecap:square;stroke-linejoin:round;stroke-miterlimit:4;stroke-dasharray:none;stroke-dashoffset:0;stroke-opacity:1"
       id="path5146"
       cx="62.051788"
       cy="121.18661"
       r="9.281249" />
    <rect
       style="fill:#ff2a2a;fill-opacity:1;stroke:none;stroke-width:1.27729;stroke-linecap:square;stroke-linejoin:round;stroke-miterlimit:4;stroke-dasharray:none;stroke-dashoffset:0;stroke-opacity:1"
       id="rect7537"
       width="7.8432307"
       height="7.687892"
       x="97.097031"
       y="54.565281"
       ry="0.6302796" />
    <rect
       style="fill:#d45500;fill-opacity:1;stroke:none;stroke-width:1.6;stroke-linecap:square;stroke-linejoin:round;stroke-miterlimit:4;stroke-dasharray:none;stroke-dashoffset:0;stroke-opacity:1"
       id="rect5294"
       width="48.792858"
       height="54.361607"
       x="62.582142"
       y="65.764282"
       ry="8.7508926" />
    <rect
       style="fill:#ff7f2a;fill-opacity:1;stroke:none;stroke-width:1.48252;stroke-linecap:square;stroke-linejoin:round;stroke-miterlimit:4;stroke-dasharray:none;stroke-dashoffset:0;stroke-opacity:1"
       id="rect5294-1"
       width="48.792858"
       height="46.671429"
       x="62.316967"
       y="65.896873"
       ry="7.5129614" />
    <circle
       style="fill:#1a1a1a;fill-opacity:1;stroke:none;stroke-width:1.6;stroke-linecap:square;stroke-linejoin:round;stroke-miterlimit:4;stroke-dasharray:none;stroke-dashoffset:0;stroke-opacity:1"
       id="path5717"
       cx="107.66249"
       cy="121.45178"
       r="11.137501" />
    <circle
       style="fill:#ac9393;fill-opacity:1;stroke:none;stroke-width:1.6;stroke-linecap:square;stroke-linejoin:round;stroke-miterlimit:4;stroke-dasharray:none;stroke-dashoffset:0;stroke-opacity:1"
       id="path5821"
       cx="107.66249"
       cy="121.45178"
       r="6.3642855" />
    <circle
       style="fill:#ac9393;fill-opacity:1;stroke:none;stroke-width:0.866666;stroke-linecap:square;stroke-linejoin:round;stroke-miterlimit:4;stroke-dasharray:none;stroke-dashoffset:0;stroke-opacity:1"
       id="path5821-1"
       cx="62.051788"
       cy="121.18661"
       r="3.4473212" />
    <rect
       style="fill:#b3b3b3;fill-opacity:1;stroke:none;stroke-width:1.6;stroke-linecap:square;stroke-linejoin:round;stroke-miterlimit:4;stroke-dasharray:none;stroke-dashoffset:0;stroke-opacity:1"
       id="rect6784"
       width="2.1214285"
       height="95.199104"
       x="116.19994"
       y="17.436924"
       ry="1.0607142"
       transform="rotate(-0.88246807)" />
    <path
       id="rect6260"
       style="fill:#666666;fill-opacity:1;stroke:none;stroke-width:1.86028;stroke-linecap:square;stroke-linejoin:round;stroke-miterlimit:4;stroke-dasharray:none;stroke-dashoffset:0;stroke-opacity:1"
       d="m 123.07024,83.373047 c -1.8892,-0.253292 -3.20934,2.000499 -3.20934,4.136856 V 106.6028 c 0,3.52582 2.76122,4.91373 7.52745,4.90599 l 37.22539,-0.0605 c 0.57567,0 -2.1402,-2.45859 -2.1402,-2.45859 l -34.36791,-0.39777 c -4.76565,-0.0552 -4.5917,-2.44155 -4.66037,-5.9667 z"
       sodipodi:nodetypes="csssccssc" />
    <rect
       style="fill:#ffe680;fill-opacity:1;stroke:none;stroke-width:1.6;stroke-linecap:square;stroke-linejoin:round;stroke-miterlimit:4;stroke-dasharray:none;stroke-dashoffset:0;stroke-opacity:1"
       id="rect7817"
       width="2.0551341"
       height="7.2924104"
       x="102.6235"
       y="54.759377"
       ry="1.027567" />
    <rect
       style="fill:#ffe680;fill-opacity:1;stroke:none;stroke-width:1.528;stroke-linecap:square;stroke-linejoin:round;stroke-miterlimit:4;stroke-dasharray:none;stroke-dashoffset:0;stroke-opacity:1"
       id="rect7819"
       width="0.92812496"
       height="6.6508718"
       x="101.03243"
       y="55.070038"
       ry="0.42323729" />
    <rect
       style="fill:#1a1a1a;fill-opacity:1;stroke:none;stroke-width:1.28285;stroke-linecap:square;stroke-linejoin:round;stroke-miterlimit:4;stroke-dasharray:none;stroke-dashoffset:0;stroke-opacity:1"
       id="rect7923"
       width="23.998659"
       height="2.3866069"
       x="69.344193"
       y="74.647758"
       ry="1.1933035" />
    <rect
       style="fill:#1a1a1a;fill-opacity:1;stroke:none;stroke-width:1.28285;stroke-linecap:square;stroke-linejoin:round;stroke-miterlimit:4;stroke-dasharray:none;stroke-dashoffset:0;stroke-opacity:1"
       id="rect7923-8"
       width="23.998659"
       height="2.3866069"
       x="69.410484"
       y="80.879463"
       ry="1.1933035" />
    <path
       id="rect11510"
       style="fill:#ffe6d5;fill-opacity:1;stroke:none;stroke-width:10.636;stroke-linecap:round;stroke-linejoin:round;stroke-miterlimit:4;stroke-dasharray:none;stroke-dashoffset:0;stroke-opacity:1"
       d="m 499.53125,372.06641 c -3.28116,0 -5.92383,2.64071 -5.92383,5.92187 v 15.79492 c 0,3.28117 2.64267,5.92188 5.92383,5.92188 h 18.98242 c 3.28117,0 5.92188,-2.64071 5.92188,-5.92188 v -9.36718 c -0.37634,-0.18959 -0.72275,-0.45649 -1.01172,-0.80079 l -9.69141,-11.54882 z"
       transform="scale(0.26458333)" />
    <path
       id="rect12388"
       style="fill:#000000;fill-opacity:1;stroke:none;stroke-width:2.065;stroke-linecap:round;stroke-linejoin:round;stroke-miterlimit:4;stroke-dasharray:none;stroke-dashoffset:0;stroke-opacity:1"
       d="m 48.677011,128.04479 0.06968,0.89972 c 0.03602,0.46607 0.440243,0.81217 0.90631,0.77614 l 4.486429,-0.34691 c 0.177113,-0.0137 0.337217,-0.0804 0.465311,-0.18362 z" />
    <path
       id="rect12388-1"
       style="fill:#000000;fill-opacity:1;stroke:none;stroke-width:5.0843;stroke-linecap:round;stroke-linejoin:round;stroke-miterlimit:4;stroke-dasharray:none;stroke-dashoffset:0;stroke-opacity:1"
       d="m 36.964671,123.32691 1.092859,-1.92006 c 0.565929,-0.99469 1.81036,-1.29741 2.790263,-0.67905 l 9.43269,5.95254 c 0.372368,0.23502 0.652216,0.56817 0.823941,0.94565 z" />
    <path
       id="rect12388-1-3"
       style="fill:#000000;fill-opacity:1;stroke:none;stroke-width:5.0843;stroke-linecap:round;stroke-linejoin:round;stroke-miterlimit:4;stroke-dasharray:none;stroke-dashoffset:0;stroke-opacity:1"
       d="m 83.155823,128.63123 0.821522,-2.05088 c 0.425365,-1.06242 1.617051,-1.53161 2.67196,-1.05228 l 10.154718,4.61411 c 0.400876,0.18219 0.72344,0.47417 0.944916,0.82479 z" />
    <path
       id="rect12388-1-3-5"
       style="fill:#000000;fill-opacity:1;stroke:none;stroke-width:3.4152;stroke-linecap:round;stroke-linejoin:round;stroke-miterlimit:4;stroke-dasharray:none;stroke-dashoffset:0;stroke-opacity:1"
       d="m 74.89864,132.00477 0.56963,-1.16417 c 0.294909,-0.60306 1.268997,-0.96326 2.18405,-0.80778 l 8.808451,1.49671 c 0.34773,0.0591 0.63611,0.18375 0.84296,0.34893 z" />
    <path
       id="rect15993"
       style="fill:#000000;fill-opacity:1;stroke:none;stroke-width:1.20784;stroke-linecap:round;stroke-linejoin:round;stroke-miterlimit:4;stroke-dasharray:none;stroke-dashoffset:0;stroke-opacity:1"
       d="m 143.17775,66.865981 c -0.003,-1.09e-4 -0.007,5.1e-5 -0.0102,2.73e-4 -0.0484,0.0031 -0.097,0.03949 -0.13619,0.109818 l -1.19319,2.142267 0.94536,0.02802 -0.0448,1.51272 c -0.003,0.101055 0.0846,0.185077 0.19638,0.188391 l 0.28916,0.0086 c 0.11179,0.0033 0.20419,-0.07537 0.20719,-0.176431 l 0.0448,-1.51272 0.90437,0.0268 -1.06391,-2.209161 c -0.0371,-0.07705 -0.0876,-0.116717 -0.13896,-0.118549 z" />
    <path
       id="rect15993-0"
       style="fill:#000000;fill-opacity:1;stroke:none;stroke-width:1.20784;stroke-linecap:round;stroke-linejoin:round;stroke-miterlimit:4;stroke-dasharray:none;stroke-dashoffset:0;stroke-opacity:1"
       d="m 140.32551,66.796095 c -0.003,-1.09e-4 -0.007,5.1e-5 -0.0102,2.73e-4 -0.0484,0.0031 -0.097,0.03949 -0.13619,0.109818 l -1.19319,2.142267 0.94536,0.02802 -0.0448,1.51272 c -0.003,0.101055 0.0846,0.185077 0.19638,0.188391 l 0.28916,0.0086 c 0.11179,0.0033 0.20419,-0.07537 0.20719,-0.176431 l 0.0448,-1.51272 0.90437,0.0268 -1.06391,-2.209161 c -0.0371,-0.07705 -0.0876,-0.116717 -0.13896,-0.118549 z" />
    <rect
       style="fill:#000000;fill-opacity:1;stroke:none;stroke-width:2.065;stroke-linecap:round;stroke-linejoin:round;stroke-miterlimit:4;stroke-dasharray:none;stroke-dashoffset:0;stroke-opacity:1"
       id="rect16227"
       width="5.7893577"
       height="0.82035434"
       x="142.43954"
       y="62.643379"
       ry="0.32814151"
       transform="rotate(3.4122725)" />
    <circle
       style="fill:#000000;stroke-width:1.91191"
       id="path1462"
       cx="107.73409"
       cy="121.56355"
       r="1.1761544" />
  </g>
</svg>
