<?xml version="1.0" encoding="UTF-8" standalone="no"?>
<!-- Created with Inkscape (http://www.inkscape.org/) -->

<svg
   width="210mm"
   height="297mm"
   viewBox="0 0 210 297"
   version="1.1"
   id="svg5"
   inkscape:version="1.1.2 (b8e25be833, 2022-02-05)"
   sodipodi:docname="logo_ready_cargo_packer.svg"
   xmlns:inkscape="http://www.inkscape.org/namespaces/inkscape"
   xmlns:sodipodi="http://sodipodi.sourceforge.net/DTD/sodipodi-0.dtd"
   xmlns="http://www.w3.org/2000/svg"
   xmlns:svg="http://www.w3.org/2000/svg">
  <sodipodi:namedview
     id="namedview7"
     pagecolor="#ffffff"
     bordercolor="#eeeeee"
     borderopacity="1"
     inkscape:pageshadow="0"
     inkscape:pageopacity="0"
     inkscape:pagecheckerboard="0"
     inkscape:document-units="mm"
     showgrid="false"
     objecttolerance="1"
     inkscape:zoom="1.1073867"
     inkscape:rotation="-3"
     inkscape:cx="397.88839"
     inkscape:cy="275.8555"
     inkscape:window-width="1920"
     inkscape:window-height="1009"
     inkscape:window-x="-8"
     inkscape:window-y="-8"
     inkscape:window-maximized="1"
     inkscape:current-layer="g2768-7-5" />
  <defs
     id="defs2">
    <inkscape:perspective
       sodipodi:type="inkscape:persp3d"
       inkscape:vp_x="0 : 148.5 : 1"
       inkscape:vp_y="105 : 1099 : 1"
       inkscape:vp_z="210 : 148.5 : 1"
       inkscape:persp3d-origin="105 : 99 : 1"
       id="perspective3097" />
    <inkscape:path-effect
       effect="powerstroke"
       id="path-effect1119"
       is_visible="true"
       lpeversion="1"
       offset_points="4,1"
       not_jump="false"
       sort_points="true"
       interpolator_type="CubicBezierJohan"
       interpolator_beta="0.2"
       start_linecap_type="zerowidth"
       linejoin_type="extrp_arc"
       miter_limit="4"
       scale_width="1"
       end_linecap_type="zerowidth" />
    <inkscape:path-effect
       effect="powerstroke"
       id="path-effect38008"
       is_visible="true"
       lpeversion="1"
       offset_points="6,18.8679"
       not_jump="false"
       sort_points="true"
       interpolator_type="CubicBezierJohan"
       interpolator_beta="0.2"
       start_linecap_type="zerowidth"
       linejoin_type="extrp_arc"
       miter_limit="4"
       scale_width="1"
       end_linecap_type="zerowidth" />
    <rect
       x="256.96959"
       y="332.9396"
       width="29.059566"
       height="45.665032"
       id="rect25272" />
    <rect
       x="241.1944"
       y="322.97632"
       width="84.272741"
       height="117.48367"
       id="rect2526" />
  </defs>
  <g
     inkscape:label="Calque 1"
     inkscape:groupmode="layer"
     id="layer1">
    <text
       xml:space="preserve"
       style="font-size:4.23333px;line-height:1.25;font-family:'Berlin Sans FB Demi';-inkscape-font-specification:'Berlin Sans FB Demi';stroke-width:0.264583;font-weight:normal;font-style:normal;font-stretch:normal;font-variant:normal"
       x="63.59634"
       y="95.119911"
       id="text14116"><tspan
         sodipodi:role="line"
         id="tspan14114"
         style="stroke-width:0.264583;-inkscape-font-specification:'Berlin Sans FB Demi';font-family:'Berlin Sans FB Demi';font-weight:normal;font-style:normal;font-stretch:normal;font-variant:normal" /></text>
    <text
       xml:space="preserve"
       transform="scale(0.26458333)"
       id="text25270"
       style="font-size:16px;line-height:1.25;font-family:'Bookshelf Symbol 7';-inkscape-font-specification:'Bookshelf Symbol 7, ';white-space:pre;shape-inside:url(#rect25272)" />
    <g
       aria-label="C"
       id="text28890-5"
       style="font-size:4.23333px;line-height:1.25;font-family:'Berlin Sans FB Demi';-inkscape-font-specification:'Berlin Sans FB Demi';fill:#43aa8b;fill-opacity:1;stroke-width:0.264583"
       transform="matrix(3.7457019,1.6478135,-2.8725727,2.1486725,36.46066,-233.94033)" />
    <g
       id="g3743" />
    <g
       id="g3719"
       inkscape:export-filename="C:\Users\cleme\Desktop\startup\g3719.png"
       inkscape:export-xdpi="374.68207"
       inkscape:export-ydpi="374.68207">
      <path
         id="rect53424"
         style="fill:#000000;stroke-linecap:square;stroke-linejoin:round;stroke-dasharray:0.834489, 1.66898;paint-order:markers fill stroke;fill-opacity:1"
         transform="matrix(0.90202882,0.4316758,-0.87333294,0.48712379,0,0)"
         d="m 188.29492,68.123047 c -0.0654,-0.0027 -0.1197,0.04982 -0.11914,0.115234 v 0.416016 c -5e-4,0.06233 0.049,0.113585 0.11133,0.115234 l 0.25195,0.0078 0,0.109375 -0.006,0.1875 c -0.003,0.06537 0.0498,0.119701 0.11524,0.11914 h 0.41797 c 0.0623,4.96e-4 0.11358,-0.04902 0.11523,-0.111328 l 0.006,-0.189453 c 2e-5,-0.0013 2e-5,-0.0026 0,-0.0039 v -0.435547 c -0.001,-0.176317 -0.14795,-0.322564 -0.32422,-0.322266 h -0.31836 z m -4.48437,0.0078 c -0.0639,-4.93e-4 -0.11573,0.05139 -0.11524,0.115235 v 0.416015 c -4.9e-4,0.06385 0.0514,0.115728 0.11524,0.115235 h 0.20898 0.75391 0.20898 c 0.0639,4.93e-4 0.11573,-0.05139 0.11524,-0.115235 v -0.416015 c 4.9e-4,-0.06385 -0.0514,-0.115728 -0.11524,-0.115235 l -0.20898,0 -0.75391,0 z m 2.26172,0 c -0.0639,-4.93e-4 -0.11573,0.05139 -0.11524,0.115235 v 0.416015 c -4.9e-4,0.06385 0.0514,0.115728 0.11524,0.115235 l 0.20898,0 0.75391,0 0.20898,0 c 0.0639,4.93e-4 0.11573,-0.05139 0.11524,-0.115235 v -0.416015 c 4.9e-4,-0.06385 -0.0514,-0.115728 -0.11524,-0.115235 l -0.20898,0 -0.75391,0 z m 2.58203,1.94141 c -0.0639,-4.93e-4 -0.11573,0.05139 -0.11524,0.115234 v 0.208984 0.753907 0.208984 c -4.9e-4,0.06385 0.0514,0.115727 0.11524,0.115234 l 0.41797,0 c 0.0638,4.88e-4 0.11572,-0.05139 0.11523,-0.115234 V 71.150391 70.396484 70.1875 c 4.9e-4,-0.06384 -0.0514,-0.115722 -0.11523,-0.115234 z m 0,2.261722 c -0.0639,-4.93e-4 -0.11573,0.05139 -0.11524,0.115235 v 0.208984 l 0,0.753906 v 0.208985 c -4.9e-4,0.06385 0.0514,0.115727 0.11524,0.115234 l 0.41797,0 c 0.0638,4.88e-4 0.11572,-0.05139 0.11523,-0.115234 v -0.208985 -0.753906 -0.208984 c 4.9e-4,-0.06384 -0.0514,-0.115723 -0.11523,-0.115235 z m 0,2.261723 c -0.0639,-4.93e-4 -0.11573,0.05139 -0.11524,0.115235 v 0.208984 0.753906 0.208984 c -4.9e-4,0.06385 0.0514,0.115728 0.11524,0.115235 l 0.41797,0 c 0.0638,4.88e-4 0.11572,-0.05139 0.11523,-0.115235 v -0.208984 l 0,-0.753906 0,-0.208984 c 4.9e-4,-0.06384 -0.0514,-0.115723 -0.11523,-0.115235 z m 0,2.261723 c -0.0639,-4.93e-4 -0.11573,0.05139 -0.11524,0.115234 v 0.208985 l 0,0.753906 0,0.208984 c -4.9e-4,0.06385 0.0514,0.115728 0.11524,0.115235 l 0.41797,0 c 0.0638,4.88e-4 0.11572,-0.05139 0.11523,-0.115235 V 77.93555 77.181644 76.972659 c 4.9e-4,-0.06384 -0.0514,-0.115722 -0.11523,-0.115234 z m -18.41602,2.226562 c -0.0638,-4.88e-4 -0.11572,0.05139 -0.11523,0.115235 l 0,0.208984 v 0.753906 0.208985 c -4.9e-4,0.06384 0.0514,0.115722 0.11523,0.115234 l 0.41797,0 c 0.0638,4.88e-4 0.11572,-0.05139 0.11523,-0.115234 v -0.208985 -0.753906 -0.208984 c 4.9e-4,-0.06384 -0.0514,-0.115723 -0.11523,-0.115235 z m 18.41602,0.03711 c -0.0639,-4.93e-4 -0.11573,0.05139 -0.11524,0.115234 l 0,0.207031 0,0.753907 v 0.208984 c -4.9e-4,0.06385 0.0514,0.115727 0.11524,0.115234 l 0.41797,0 c 0.0638,4.88e-4 0.11572,-0.05139 0.11523,-0.115234 v -0.208984 -0.753907 -0.207031 c 4.9e-4,-0.06384 -0.0514,-0.115722 -0.11523,-0.115234 z m -18.41602,2.224609 c -0.0638,-4.88e-4 -0.11572,0.05139 -0.11523,0.115235 v 0.208984 0.753906 l 0,0.208984 c -4.9e-4,0.06384 0.0514,0.115723 0.11523,0.115235 h 0.41797 c 0.0638,4.88e-4 0.11572,-0.05139 0.11523,-0.115235 v -0.208984 -0.753906 -0.208984 c 4.9e-4,-0.06384 -0.0514,-0.115723 -0.11523,-0.115235 z m 18.41602,0.03711 c -0.0639,-4.93e-4 -0.11573,0.05139 -0.11524,0.115235 v 0.208984 0.753907 0.207031 c -4.9e-4,0.06385 0.0514,0.115727 0.11524,0.115234 l 0.41797,0 c 0.0638,4.88e-4 0.11572,-0.05139 0.11523,-0.115234 v -0.207031 -0.753907 -0.208984 c 4.9e-4,-0.06384 -0.0514,-0.115723 -0.11523,-0.115235 z m -18.41602,2.22461 c -0.0638,-4.88e-4 -0.11572,0.05139 -0.11523,0.115234 l 0,0.208985 v 0.753906 l 0,0.208984 c -4.9e-4,0.06384 0.0514,0.115723 0.11523,0.115235 h 0.41797 c 0.0638,4.88e-4 0.11572,-0.05139 0.11523,-0.115235 V 84.685551 83.931645 83.72266 c 4.9e-4,-0.06384 -0.0514,-0.115722 -0.11523,-0.115234 z m 18.41602,0.03711 c -0.0639,-4.93e-4 -0.11573,0.05139 -0.11524,0.115235 v 0.208984 0.753906 0.208985 c -4.9e-4,0.06385 0.0514,0.115727 0.11524,0.115234 l 0.41797,0 c 0.0638,4.88e-4 0.11572,-0.05139 0.11523,-0.115234 v -0.20899 -0.753906 -0.208984 c 4.9e-4,-0.06384 -0.0514,-0.115723 -0.11523,-0.115235 z m 0.0156,2.007813 c -0.0623,-4.96e-4 -0.11358,0.04902 -0.11523,0.111328 l -0.0117,0.341797 -0.23438,0 -0.20898,0 c -0.0638,-4.88e-4 -0.11572,0.05139 -0.11523,0.115234 v 0.417969 c -4.9e-4,0.06384 0.0514,0.115722 0.11523,0.115234 l 0.20898,0 0.55469,0 c 0.17744,2.95e-4 0.32451,-0.14679 0.32422,-0.324218 l 0,-0.197266 0.0156,-0.460938 c 0.003,-0.06536 -0.0498,-0.119695 -0.11523,-0.11914 z m -18.40039,0.02148 c -0.0594,3.81e-4 -0.10866,0.04622 -0.11328,0.105469 l -0.0312,0.404297 c -8.1e-4,0.0032 -0.001,0.0065 -0.002,0.0098 v 0.236329 c -3e-4,0.177437 0.14679,0.324513 0.32422,0.324218 h 0.51953 l 0.20898,0 c 0.0639,4.93e-4 0.11573,-0.05139 0.11524,-0.115234 v -0.417969 c 4.9e-4,-0.06385 -0.0514,-0.115727 -0.11524,-0.115234 h -0.20898 -0.18946 l 0.0234,-0.306641 c 0.006,-0.06684 -0.0462,-0.124658 -0.11328,-0.125 z m 1.99609,0.431641 c -0.0638,-4.88e-4 -0.11572,0.05139 -0.11523,0.115234 v 0.417969 c -4.9e-4,0.06384 0.0514,0.115722 0.11523,0.115234 h 0.20899 0.75391 0.20898 c 0.0638,4.88e-4 0.11572,-0.05139 0.11523,-0.115234 l 0,-0.417969 c 4.9e-4,-0.06384 -0.0514,-0.115722 -0.11523,-0.115234 l -0.20898,0 -0.75391,0 z m 2.26172,0 c -0.0638,-4.88e-4 -0.11572,0.05139 -0.11523,0.115234 v 0.417969 c -4.9e-4,0.06384 0.0514,0.115722 0.11523,0.115234 l 0.20899,0 0.7539,0 h 0.20899 c 0.0638,4.88e-4 0.11572,-0.05139 0.11523,-0.115234 v -0.417969 c 4.9e-4,-0.06384 -0.0514,-0.115722 -0.11523,-0.115234 l -0.20899,0 -0.7539,0 z m 2.26172,0 c -0.0638,-4.88e-4 -0.11572,0.05139 -0.11523,0.115234 v 0.417969 c -4.9e-4,0.06384 0.0514,0.115722 0.11523,0.115234 h 0.20899 0.7539 l 0.20899,0 c 0.0638,4.88e-4 0.11572,-0.05139 0.11523,-0.115234 l 0,-0.417969 c 4.9e-4,-0.06384 -0.0514,-0.115722 -0.11523,-0.115234 l -0.20899,0 -0.7539,0 z m 2.26367,0 c -0.0638,-4.88e-4 -0.11572,0.05139 -0.11523,0.115234 l 0,0.417969 c -4.9e-4,0.06384 0.0514,0.115722 0.11523,0.115234 h 0.20704 l 0.7539,0 0.20899,0 c 0.0638,4.88e-4 0.11572,-0.05139 0.11523,-0.115234 l 0,-0.417969 c 4.9e-4,-0.06384 -0.0514,-0.115722 -0.11523,-0.115234 l -0.20899,0 -0.7539,0 z m 2.26172,0 c -0.0638,-4.88e-4 -0.11572,0.05139 -0.11523,0.115234 l 0,0.417969 c -4.9e-4,0.06384 0.0514,0.115722 0.11523,0.115234 l 0.20703,0 0.75586,0 0.20704,0 c 0.0638,4.88e-4 0.11572,-0.05139 0.11523,-0.115234 v -0.417969 c 4.9e-4,-0.06384 -0.0514,-0.115722 -0.11523,-0.115234 h -0.20704 -0.75586 z m 2.26172,0 c -0.0638,-4.88e-4 -0.11572,0.05139 -0.11523,0.115234 l 0,0.417969 c -4.9e-4,0.06384 0.0514,0.115722 0.11523,0.115234 l 0.20899,0 0.7539,0 h 0.20703 c 0.0639,4.93e-4 0.11573,-0.05139 0.11524,-0.115234 l 0,-0.417969 c 4.9e-4,-0.06385 -0.0514,-0.115727 -0.11524,-0.115234 l -0.20703,0 h -0.7539 z m 2.26172,0 c -0.0638,-4.88e-4 -0.11572,0.05139 -0.11523,0.115234 v 0.417969 c -4.9e-4,0.06384 0.0514,0.115722 0.11523,0.115234 l 0.20899,0 h 0.7539 l 0.20899,0 c 0.0638,4.88e-4 0.11572,-0.05139 0.11523,-0.115234 v -0.417969 c 4.9e-4,-0.06384 -0.0514,-0.115722 -0.11523,-0.115234 h -0.20899 -0.7539 z"
         sodipodi:nodetypes="cccccccccccccccccccccccccccccccccccccccccccccccccccccccccccccccccccccccccccccccccccccccccccccccccccccccccccccccccccccccccccccccccccccccccccccccccccccccccccccccccccccccccccccccccccccccccccccccccccccccccccccccccccccccccccccccccccccccccccccccccccccccccccccccccccccccccccccccccccccccccccccccccccccc" />
      <g
         id="g52949"
         transform="translate(11.974314,5.337847)">
        <path
           id="rect43091-5"
           style="fill:#43aa8b;fill-opacity:1;stroke-width:0;stroke-linejoin:round;paint-order:fill markers stroke"
           d="m 81.715394,91.754799 v 17.198431 l 0.34476,0.49248 c 0,0 2.291256,-0.4441 2.562948,-0.97513 0.01752,-0.30724 0.03752,-0.62186 0.03336,-0.92708 0.04791,-4.94517 0.242061,-9.972742 0.254777,-14.87506 z" />
        <path
           id="rect43091"
           style="fill:#126e5d;stroke-width:0;stroke-linejoin:round;paint-order:fill markers stroke"
           d="m 72.857709,90.658226 v 3.851444 l -1.948454,-1.019667 0.154466,14.024637 c -0.005,0.0227 -0.0074,0.0455 -0.01178,0.0682 v 0.85214 c 0.187417,1.03629 1.057839,1.90047 2.615184,2.59158 1.360585,0.60379 4.394515,0.97436 6.011503,0.48769 0.0723,-1.81002 0.02908,-5.26395 0.02908,-5.26395 L 81.88374,109.46572 81.701,90.658216 Z"
           sodipodi:nodetypes="ccccccsccccc" />
        <path
           id="rect52413"
           style="fill:#43aa8b;fill-opacity:1;stroke:none;stroke-width:0;stroke-linejoin:round;stroke-miterlimit:4;stroke-dasharray:none;paint-order:fill markers stroke"
           d="m 75.709401,96.898486 0.03293,5.535654 3.545207,7.93359 0.04332,-13.529649 c -0.03764,0.04257 -0.291057,0.247881 -0.397948,0.274997 -0.795263,0.184663 -0.338666,-0.425227 -1.216666,-0.292457 z"
           sodipodi:nodetypes="ccccccc" />
        <g
           aria-label="C"
           id="text28890"
           style="font-size:4.23333px;line-height:1.25;font-family:'Berlin Sans FB Demi';-inkscape-font-specification:'Berlin Sans FB Demi';fill:#addfd0;fill-opacity:1;stroke-width:0.264583"
           transform="matrix(3.7457019,1.6478135,-2.8725727,2.1486725,24.049055,-251.60973)">
          <path
             d="m 87.625822,95.087497 c -0.0081,0.02699 -0.02101,0.0556 -0.04995,0.09143 -0.253559,0.30179 -0.590489,0.452685 -1.01079,0.452685 -0.429947,0 -0.778591,-0.146761 -1.04593,-0.440283 -0.260449,-0.283875 -0.390674,-0.642165 -0.390674,-1.074869 0,-0.418923 0.127469,-0.774457 0.382406,-1.0666 0.265961,-0.305925 0.604269,-0.458887 1.014924,-0.458887 0.446484,0 0.796505,0.137115 1.050064,0.411344 0.02756,0.03032 0.04134,0.05719 0.04134,0.08062 0,0.02618 -0.04823,0.123331 -0.144694,0.291454 -0.09508,0.168121 -0.155028,0.262516 -0.179833,0.283187 -0.01103,0.01103 -0.02481,0.01654 -0.04134,0.01654 -0.0069,0 -0.04134,-0.02756 -0.103353,-0.08268 -0.07441,-0.06615 -0.14745,-0.117823 -0.219108,-0.155029 -0.108865,-0.05512 -0.221864,-0.08268 -0.338997,-0.08268 -0.202571,0 -0.364491,0.07579 -0.485758,0.227376 -0.111621,0.14056 -0.167432,0.314193 -0.167432,0.520898 0,0.209461 0.05581,0.385161 0.167432,0.527099 0.121267,0.15434 0.283187,0.23151 0.485758,0.23151 0.119889,0 0.233577,-0.02618 0.341064,-0.07855 0.07028,-0.03445 0.141938,-0.08268 0.214974,-0.144694 0.05242,-0.04828 0.06485,-0.06196 0.09028,-0.05299 0.02205,0.02481 0.09848,0.05278 0.256609,0.244521 0.09811,0.115242 0.130854,0.174962 0.135062,0.20731 z"
             id="path35303"
             style="fill:#addfd0;fill-opacity:1"
             sodipodi:nodetypes="ccscscscsccsscscscscccccc" />
        </g>
        <g
           aria-label="C"
           id="text28890-9"
           style="font-size:4.23333px;line-height:1.25;font-family:'Berlin Sans FB Demi';-inkscape-font-specification:'Berlin Sans FB Demi';fill:#addfd0;fill-opacity:1;stroke-width:0.264583"
           transform="matrix(3.7457019,1.6478135,-2.8725727,2.1486725,24.051174,-251.64551)" />
      </g>
      <g
         id="g39372"
         transform="matrix(0.81229756,0,0,0.81229756,22.428876,27.067251)">
        <rect
           style="fill:#790406;fill-opacity:1;stroke:none;stroke-width:0.087;stroke-linejoin:round;paint-order:fill markers stroke"
           id="rect36471"
           height="6.6452212"
           x="100.50199"
           y="97.728577"
           width="4.3111529" />
        <path
           id="rect36471-1"
           style="fill:#790406;stroke-width:0.205452;stroke-linejoin:round;paint-order:fill markers stroke"
           transform="matrix(0.89615091,0.44374942,0,1,0,0)"
           d="m 98.884146,50.141382 10.245944,0.191559 -10e-6,13.958976 -10.245934,-0.473456 z"
           sodipodi:nodetypes="ccccc" />
        <path
           id="rect36471-1-5"
           style="fill:#fa6c8e;fill-opacity:1;stroke:none;stroke-width:0.767631;stroke-linejoin:round;paint-order:fill markers stroke"
           d="m 363.78074,339.45328 c -3.68146,0.34558 -4.05693,0.52134 -7.23828,1.55273 -4.55302,2.02738 -6.55186,3.0615 -10.04492,5.43946 -5.91817,4.02887 -11.57426,8.91011 -11.57426,8.91011 14.60886,7.8993 26.78482,14.05711 41.9927,21.52333 l 28.80664,-15.57032 -2.02457,-1.97922 -34.7318,-18.65734 c -0.10261,-0.0493 -0.19326,-0.10678 -0.29883,-0.1543 -0.0712,-0.0314 -0.13844,-0.0538 -0.20899,-0.084 l -0.5664,-0.26368 -0.0156,0.0332 c -1.3093,-0.50259 -1.3328,-0.676 -4.0957,-0.75 z"
           sodipodi:nodetypes="ccsccccccccccc"
           transform="scale(0.26458333)" />
        <g
           aria-label="P"
           id="text30082"
           style="font-size:4.23333px;line-height:1.25;font-family:'Berlin Sans FB Demi';-inkscape-font-specification:'Berlin Sans FB Demi';fill:#f94144;fill-opacity:1;stroke-width:0.264583"
           transform="matrix(4.271771,-2.9080719,0,4.8968863,-258.40571,-146.4826)">
          <path
             d="m 85.788334,100.79298 c 0,0.33348 -0.0618,0.5179 -0.236804,0.72461 -0.187413,0.21911 -0.445794,0.32866 -0.775145,0.32866 -0.05512,0 -0.138491,-0.003 -0.250114,-0.008 -0.110243,-0.007 -0.192926,-0.0327 -0.248047,-0.0327 -0.05925,0 -0.08888,0.0765 -0.08888,0.0765 l -0.0062,0.61181 c 0,0 -0.210151,-0.003 -0.378271,-0.008 -0.168121,-0.004 -0.285989,0.0137 -0.378272,-0.006 -0.05808,-0.0124 -0.05994,-0.0599 -0.05994,-0.0599 l 0.0186,-2.819467 c 0,0 0.34451,-0.02067 0.711067,-0.02067 0.216352,0 0.340181,0.01766 0.622184,0.07559 0.394091,0.122581 0.551231,0.223987 0.751046,0.419667 0.20395,0.2012 0.318781,0.39353 0.318781,0.71875 z m -0.799043,-0.0526 c 0,-0.32109 -0.156407,-0.48163 -0.469221,-0.48163 -0.220486,0 -0.336241,-0.01 -0.347266,0.0148 -0.01873,0.26141 -0.0179,0.43099 -0.01037,0.66766 0.0041,0.0827 0.0062,0.14538 0.0062,0.1881 0,0.0275 0.124023,0.0637 0.37207,0.0637 0.299034,0 0.448551,-0.15089 0.448551,-0.45268 z"
             id="path35300"
             style="fill:#f94144;fill-opacity:1"
             sodipodi:nodetypes="ccscscccsccscccccscccscc" />
        </g>
        <g
           aria-label="P"
           id="text30082-8"
           style="font-size:4.23333px;line-height:1.25;font-family:'Berlin Sans FB Demi';-inkscape-font-specification:'Berlin Sans FB Demi';fill:#f94144;fill-opacity:1;stroke-width:0.264583"
           transform="matrix(4.271771,-2.9080719,0,4.8968863,-267.85896,-150.9044)" />
      </g>
      <g
         id="g43067"
         transform="translate(13.448739,-4.3720221)">
        <path
           id="path35306-4"
           style="font-size:4.23333px;line-height:1.25;font-family:'Berlin Sans FB Demi';-inkscape-font-specification:'Berlin Sans FB Demi';fill:#f8961e;fill-opacity:1;stroke-width:3.62664"
           d="m 300.3457,430.86328 -5.9082,3.1543 7.12891,21.29297 -2.68164,1.43164 7.8125,23.33789 25.47461,-13.60352 -0.34766,-1.04101 c -0.40565,-1.46483 -1.41843,-4.53838 -3.04102,-9.22071 -0.5764,-1.66341 -0.87404,-2.51963 -1.29687,-3.73828 l -1.92383,-5.74804 c 0.0638,-0.19872 0.25722,-0.34054 0.58594,-0.42188 2.0038,-0.56345 3.37822,-1.51863 4.12304,-2.86523 0.74484,-1.34657 1.11719,-3.48834 1.11719,-6.42579 0,-4.40624 -1.0822,-8.56206 -3.9727,-12.46302 -4.9586,-8.38366 -27.13322,-11.83464 -27.07027,6.31068 z"
           sodipodi:nodetypes="cccccccscccsscc"
           transform="scale(0.26458333)" />
        <path
           id="path35306-4-2"
           style="font-size:4.23333px;line-height:1.25;font-family:'Berlin Sans FB Demi';-inkscape-font-specification:'Berlin Sans FB Demi';fill:#f8961e;fill-opacity:1;stroke-width:3.62664"
           d="m 279.53906,434.18359 v 7.16016 l 0.82813,2.47266 -0.82813,0.4414 v 6.52735 l 5.95899,17.80078 22.21875,-11.86524 v -11.61328 c -0.0478,-0.13808 -0.0839,-0.24572 -0.13282,-0.38672 -0.5764,-1.6634 -0.87404,-2.51965 -1.29687,-3.73828 l -1.92383,-5.74804 c 0.0638,-0.19881 0.25723,-0.34054 0.58594,-0.42188 0.61433,-0.17275 1.16805,-0.38253 1.66406,-0.62891 z"
           transform="scale(0.26458333)" />
        <g
           aria-label="R"
           id="text27764"
           style="font-size:4.23333px;line-height:1.25;font-family:'Berlin Sans FB Demi';-inkscape-font-specification:'Berlin Sans FB Demi';fill:#794404;fill-opacity:1;stroke-width:0.264583"
           transform="matrix(3.4047664,1.8458858,0,3.8629859,-178.75525,-383.46834)">
          <path
             d="m 76.355561,95.648435 c 0,0.0096 -0.01378,0.01654 -0.04134,0.02067 -0.05237,0.0083 -0.183969,0.0124 -0.394808,0.0124 -0.180523,0 -0.303168,-0.0041 -0.367935,-0.0124 -0.03032,-0.0041 -0.04755,-0.0076 -0.05168,-0.01034 -0.0083,-0.0041 -0.01791,-0.01791 -0.02894,-0.04134 -0.02067,-0.05374 -0.05098,-0.133666 -0.09095,-0.239778 -0.05375,-0.137804 -0.137807,-0.341065 -0.252181,-0.609782 -0.02481,-0.05375 -0.08199,-0.08337 -0.171565,-0.08888 0.04134,0.0027 -0.270865,-0.01971 -0.270865,-0.01971 l 0.0021,1.013899 c 0,0 -0.208083,0.0083 -0.380338,0.0083 -0.197059,0 -0.355533,-0.0124 -0.355533,-0.0124 l -0.05994,-0.06408 0.0041,-2.738849 -0.0021,-0.02894 0.06408,-0.04754 c 0,0 0.256313,-0.01654 0.632519,-0.02481 0.254937,-0.0055 0.458197,-0.0083 0.609781,-0.0083 0.314193,0 0.570508,0.07097 0.768945,0.212907 0.22462,0.159852 0.33693,0.390673 0.33693,0.692464 0,0.201193 -0.02894,0.361735 -0.08682,0.481624 -0.05788,0.119889 -0.164678,0.236333 -0.320393,0.349332 -0.03169,0.02205 -0.04754,0.04272 -0.04754,0.06201 0,-0.0014 0.08406,0.171544 0.25218,0.518831 0.168121,0.347265 0.252181,0.538812 0.252181,0.574641 z m -0.868163,-1.854149 c 0,-0.168121 -0.05512,-0.284565 -0.165365,-0.349332 -0.08544,-0.04961 -0.219107,-0.07441 -0.401008,-0.07441 -0.130914,0 -0.200505,0.01998 -0.208773,0.05994 -0.0083,0.04685 -0.0124,0.181901 -0.0124,0.405143 0,0.03169 7e-4,0.07855 0.0021,0.14056 0.0014,0.06201 0.0021,0.108178 0.0021,0.138493 0,0.0069 0.02205,0.01378 0.06615,0.02067 0.08406,0.0124 0.172254,0.0186 0.264583,0.0186 0.30179,0 0.452685,-0.119889 0.452685,-0.359668 z"
             id="path35306"
             style="fill:#794404;fill-opacity:1"
             sodipodi:nodetypes="ccsccccccccsccccccscsscccccccscssscscc" />
        </g>
        <path
           id="rect40266-8"
           style="fill:#fbdd84;fill-opacity:1;stroke-width:0;stroke-linejoin:round;paint-order:fill markers stroke"
           inkscape:transform-center-x="-0.84572906"
           inkscape:transform-center-y="3.1088671"
           d="m 301.71733,409.58838 -26.21733,11.771 18.67821,9.49857 1.89,1.24966 c 0,0 2.79457,2.07978 5.44245,5.35537 2.64788,3.27559 26.90426,-8.95365 25.95822,-12.53557 -0.94605,-3.58192 -9.71886,-7.96311 -9.71886,-7.96311 z"
           transform="scale(0.26458333)"
           sodipodi:nodetypes="cccczzcc" />
      </g>
      <g
         id="g3662">
        <g
           id="g1047">
          <g
             id="g4657"
             inkscape:export-filename="C:\Users\cleme\Desktop\startup\g4657.png"
             inkscape:export-xdpi="96"
             inkscape:export-ydpi="96">
            <g
               id="g2768">
              <path
                 id="path1236"
                 style="color:#000000;fill:#d7cece;fill-opacity:1;stroke:none;stroke-width:1;stroke-linecap:round;stroke-opacity:1;-inkscape-stroke:none"
                 d="m 123.03125,112.18337 -4.70721,2.43551 16.06465,9.18756 v -15.76338 z"
                 sodipodi:nodetypes="ccccc" />
              <path
                 id="path1236-0"
                 style="color:#000000;fill:#d7cece;fill-opacity:1;stroke:none;stroke-width:1.03555;stroke-linecap:round;stroke-opacity:1;-inkscape-stroke:none"
                 d="m 138.65117,107.73935 -17.49338,-9.047801 v 15.523581 l 1.55312,0.85039 z"
                 sodipodi:nodetypes="ccccc" />
              <g
                 id="g3579"
                 transform="translate(-25.239728,-11.197135)">
                <g
                   id="g52949-0"
                   transform="translate(76.951048,15.879248)">
                  <path
                     id="rect43091-5-9"
                     style="fill:#43aa8b;fill-opacity:1;stroke-width:0;stroke-linejoin:round;paint-order:fill markers stroke"
                     d="m 81.715394,91.754799 v 17.198431 l 0.34476,0.49248 c 0,0 2.291256,-0.4441 2.562948,-0.97513 0.01752,-0.30724 0.03752,-0.62186 0.03336,-0.92708 0.04791,-4.94517 0.242061,-9.972742 0.254777,-14.87506 z" />
                  <path
                     id="rect43091-9"
                     style="fill:#126e5d;stroke-width:0;stroke-linejoin:round;paint-order:fill markers stroke"
                     d="m 72.857709,90.658226 v 3.851444 l -1.948454,-1.019667 0.154466,14.024637 c -0.005,0.0227 -0.0074,0.0455 -0.01178,0.0682 v 0.85214 c 0.187417,1.03629 1.057839,1.90047 2.615184,2.59158 1.360585,0.60379 4.394515,0.97436 6.011503,0.48769 0.0723,-1.81002 0.02908,-5.26395 0.02908,-5.26395 L 81.88374,109.46572 81.701,90.658216 Z"
                     sodipodi:nodetypes="ccccccsccccc" />
                  <path
                     id="rect52413-1"
                     style="fill:#43aa8b;fill-opacity:1;stroke:none;stroke-width:0;stroke-linejoin:round;stroke-miterlimit:4;stroke-dasharray:none;paint-order:fill markers stroke"
                     d="m 75.709401,96.898486 0.03293,5.535654 3.545207,7.93359 0.04332,-13.529649 c -0.03764,0.04257 -0.291057,0.247881 -0.397948,0.274997 -0.795263,0.184663 -0.338666,-0.425227 -1.216666,-0.292457 z"
                     sodipodi:nodetypes="ccccccc" />
                  <g
                     aria-label="C"
                     id="text28890-6"
                     style="font-size:4.23333px;line-height:1.25;font-family:'Berlin Sans FB Demi';-inkscape-font-specification:'Berlin Sans FB Demi';fill:#addfd0;fill-opacity:1;stroke-width:0.264583"
                     transform="matrix(3.7457019,1.6478135,-2.8725727,2.1486725,24.049055,-251.60973)">
                    <path
                       d="m 87.625822,95.087497 c -0.0081,0.02699 -0.02101,0.0556 -0.04995,0.09143 -0.253559,0.30179 -0.590489,0.452685 -1.01079,0.452685 -0.429947,0 -0.778591,-0.146761 -1.04593,-0.440283 -0.260449,-0.283875 -0.390674,-0.642165 -0.390674,-1.074869 0,-0.418923 0.127469,-0.774457 0.382406,-1.0666 0.265961,-0.305925 0.604269,-0.458887 1.014924,-0.458887 0.446484,0 0.796505,0.137115 1.050064,0.411344 0.02756,0.03032 0.04134,0.05719 0.04134,0.08062 0,0.02618 -0.04823,0.123331 -0.144694,0.291454 -0.09508,0.168121 -0.155028,0.262516 -0.179833,0.283187 -0.01103,0.01103 -0.02481,0.01654 -0.04134,0.01654 -0.0069,0 -0.04134,-0.02756 -0.103353,-0.08268 -0.07441,-0.06615 -0.14745,-0.117823 -0.219108,-0.155029 -0.108865,-0.05512 -0.221864,-0.08268 -0.338997,-0.08268 -0.202571,0 -0.364491,0.07579 -0.485758,0.227376 -0.111621,0.14056 -0.167432,0.314193 -0.167432,0.520898 0,0.209461 0.05581,0.385161 0.167432,0.527099 0.121267,0.15434 0.283187,0.23151 0.485758,0.23151 0.119889,0 0.233577,-0.02618 0.341064,-0.07855 0.07028,-0.03445 0.141938,-0.08268 0.214974,-0.144694 0.05242,-0.04828 0.06485,-0.06196 0.09028,-0.05299 0.02205,0.02481 0.09848,0.05278 0.256609,0.244521 0.09811,0.115242 0.130854,0.174962 0.135062,0.20731 z"
                       id="path35303-2"
                       style="fill:#addfd0;fill-opacity:1"
                       sodipodi:nodetypes="ccscscscsccsscscscscccccc" />
                  </g>
                  <g
                     aria-label="C"
                     id="text28890-9-3"
                     style="font-size:4.23333px;line-height:1.25;font-family:'Berlin Sans FB Demi';-inkscape-font-specification:'Berlin Sans FB Demi';fill:#addfd0;fill-opacity:1;stroke-width:0.264583"
                     transform="matrix(3.7457019,1.6478135,-2.8725727,2.1486725,24.051174,-251.64551)" />
                </g>
                <rect
                   style="fill:#790406;fill-opacity:1;stroke:none;stroke-width:0.0706699;stroke-linejoin:round;paint-order:fill markers stroke"
                   id="rect36471-2"
                   width="3.5019391"
                   height="5.3978968"
                   x="169.04314"
                   y="116.99333" />
                <path
                   id="rect36471-1-2"
                   style="fill:#790406;stroke-width:0.157985;stroke-linejoin:round;paint-order:fill markers stroke"
                   d="m 159.38745,113.98181 7.45845,3.84882 -1e-5,11.33884 -7.45844,-4.0778 z"
                   sodipodi:nodetypes="ccccc" />
                <path
                   id="rect36471-1-5-4"
                   style="fill:#fa6c8e;fill-opacity:1;stroke:none;stroke-width:0.16498;stroke-linejoin:round;paint-order:fill markers stroke"
                   d="m 165.58951,110.56408 c -0.79122,0.0743 -0.87192,0.11205 -1.55566,0.33372 -0.97853,0.43572 -1.40812,0.65797 -2.15885,1.16905 -1.27194,0.86588 -2.48755,1.91496 -2.48755,1.91496 3.13974,1.69772 5.75661,3.02116 9.02509,4.6258 l 6.19113,-3.34638 -0.43512,-0.42537 -7.46457,-4.00984 c -0.0221,-0.0106 -0.0415,-0.0229 -0.0642,-0.0332 -0.0153,-0.007 -0.0298,-0.0116 -0.0449,-0.0181 l -0.12173,-0.0567 -0.003,0.007 c -0.2814,-0.10802 -0.28645,-0.14529 -0.88025,-0.16119 z"
                   sodipodi:nodetypes="ccsccccccccccc" />
                <g
                   aria-label="P"
                   id="text30082-9"
                   style="font-size:4.23333px;line-height:1.25;font-family:'Berlin Sans FB Demi';-inkscape-font-specification:'Berlin Sans FB Demi';fill:#f94144;fill-opacity:1;stroke-width:0.264583"
                   transform="matrix(3.4699492,-2.3622197,0,3.9777288,-122.49672,-81.378808)">
                  <path
                     d="m 85.788334,100.79298 c 0,0.33348 -0.0618,0.5179 -0.236804,0.72461 -0.187413,0.21911 -0.445794,0.32866 -0.775145,0.32866 -0.05512,0 -0.138491,-0.003 -0.250114,-0.008 -0.110243,-0.007 -0.192926,-0.0327 -0.248047,-0.0327 -0.05925,0 -0.08888,0.0765 -0.08888,0.0765 l -0.0062,0.61181 c 0,0 -0.210151,-0.003 -0.378271,-0.008 -0.168121,-0.004 -0.285989,0.0137 -0.378272,-0.006 -0.05808,-0.0124 -0.05994,-0.0599 -0.05994,-0.0599 l 0.0186,-2.819467 c 0,0 0.34451,-0.02067 0.711067,-0.02067 0.216352,0 0.340181,0.01766 0.622184,0.07559 0.394091,0.122581 0.551231,0.223987 0.751046,0.419667 0.20395,0.2012 0.318781,0.39353 0.318781,0.71875 z m -0.799043,-0.0526 c 0,-0.32109 -0.156407,-0.48163 -0.469221,-0.48163 -0.220486,0 -0.336241,-0.01 -0.347266,0.0148 -0.01873,0.26141 -0.0179,0.43099 -0.01037,0.66766 0.0041,0.0827 0.0062,0.14538 0.0062,0.1881 0,0.0275 0.124023,0.0637 0.37207,0.0637 0.299034,0 0.448551,-0.15089 0.448551,-0.45268 z"
                     id="path35300-0"
                     style="fill:#f94144;fill-opacity:1"
                     sodipodi:nodetypes="ccscscccsccscccccscccscc" />
                </g>
                <g
                   aria-label="P"
                   id="text30082-8-2"
                   style="font-size:4.23333px;line-height:1.25;font-family:'Berlin Sans FB Demi';-inkscape-font-specification:'Berlin Sans FB Demi';fill:#f94144;fill-opacity:1;stroke-width:0.264583"
                   transform="matrix(3.4699492,-2.3622197,0,3.9777288,-130.17557,-84.970625)" />
                <g
                   id="g43067-0"
                   transform="translate(78.425473,6.1693789)">
                  <path
                     id="path35306-4-21"
                     style="font-size:4.23333px;line-height:1.25;font-family:'Berlin Sans FB Demi';-inkscape-font-specification:'Berlin Sans FB Demi';fill:#f8961e;fill-opacity:1;stroke-width:3.62664"
                     d="m 300.3457,430.86328 -5.9082,3.1543 c 0.98976,7.37293 4.44727,22.72461 4.44727,22.72461 l 7.8125,23.33789 25.47461,-13.60352 -0.34766,-1.04101 c -0.40565,-1.46483 -1.41843,-4.53838 -3.04102,-9.22071 -0.5764,-1.66341 -0.87404,-2.51963 -1.29687,-3.73828 l -1.92383,-5.74804 c 0.0638,-0.19872 0.25722,-0.34054 0.58594,-0.42188 2.0038,-0.56345 3.37822,-1.51863 4.12304,-2.86523 0.74484,-1.34657 1.11719,-3.48834 1.11719,-6.42579 0,-4.40624 -1.0822,-8.56206 -3.9727,-12.46302 -4.9586,-8.38366 -27.13322,-11.83464 -27.07027,6.31068 z"
                     transform="scale(0.26458333)"
                     sodipodi:nodetypes="ccccccscccsscc" />
                  <path
                     id="path35306-4-2-3"
                     style="font-size:4.23333px;line-height:1.25;font-family:'Berlin Sans FB Demi';-inkscape-font-specification:'Berlin Sans FB Demi';fill:#f8961e;fill-opacity:1;stroke-width:3.62664"
                     d="m 279.53906,434.18359 v 7.16016 l 0.82813,2.47266 -0.82813,0.4414 v 6.52735 l 5.95899,17.80078 22.21875,-11.86524 v -11.61328 c -0.0478,-0.13808 -0.0839,-0.24572 -0.13282,-0.38672 -0.5764,-1.6634 -0.87404,-2.51965 -1.29687,-3.73828 l -1.92383,-5.74804 c 0.0638,-0.19881 0.25723,-0.34054 0.58594,-0.42188 0.61433,-0.17275 1.16805,-0.38253 1.66406,-0.62891 z"
                     transform="scale(0.26458333)" />
                  <g
                     aria-label="R"
                     id="text27764-5"
                     style="font-size:4.23333px;line-height:1.25;font-family:'Berlin Sans FB Demi';-inkscape-font-specification:'Berlin Sans FB Demi';fill:#794404;fill-opacity:1;stroke-width:0.264583"
                     transform="matrix(3.4047664,1.8458858,0,3.8629859,-178.75525,-383.46834)">
                    <path
                       d="m 76.355561,95.648435 c 0,0.0096 -0.01378,0.01654 -0.04134,0.02067 -0.05237,0.0083 -0.183969,0.0124 -0.394808,0.0124 -0.180523,0 -0.303168,-0.0041 -0.367935,-0.0124 -0.03032,-0.0041 -0.04755,-0.0076 -0.05168,-0.01034 -0.0083,-0.0041 -0.01791,-0.01791 -0.02894,-0.04134 -0.02067,-0.05374 -0.05098,-0.133666 -0.09095,-0.239778 -0.05375,-0.137804 -0.137807,-0.341065 -0.252181,-0.609782 -0.02481,-0.05375 -0.08199,-0.08337 -0.171565,-0.08888 0.04134,0.0027 -0.270865,-0.01971 -0.270865,-0.01971 l 0.0021,1.013899 c 0,0 -0.208083,0.0083 -0.380338,0.0083 -0.197059,0 -0.355533,-0.0124 -0.355533,-0.0124 l -0.05994,-0.06408 0.0041,-2.738849 -0.0021,-0.02894 0.06408,-0.04754 c 0,0 0.256313,-0.01654 0.632519,-0.02481 0.254937,-0.0055 0.458197,-0.0083 0.609781,-0.0083 0.314193,0 0.570508,0.07097 0.768945,0.212907 0.22462,0.159852 0.33693,0.390673 0.33693,0.692464 0,0.201193 -0.02894,0.361735 -0.08682,0.481624 -0.05788,0.119889 -0.164678,0.236333 -0.320393,0.349332 -0.03169,0.02205 -0.04754,0.04272 -0.04754,0.06201 0,-0.0014 0.08406,0.171544 0.25218,0.518831 0.168121,0.347265 0.252181,0.538812 0.252181,0.574641 z m -0.868163,-1.854149 c 0,-0.168121 -0.05512,-0.284565 -0.165365,-0.349332 -0.08544,-0.04961 -0.219107,-0.07441 -0.401008,-0.07441 -0.130914,0 -0.200505,0.01998 -0.208773,0.05994 -0.0083,0.04685 -0.0124,0.181901 -0.0124,0.405143 0,0.03169 7e-4,0.07855 0.0021,0.14056 0.0014,0.06201 0.0021,0.108178 0.0021,0.138493 0,0.0069 0.02205,0.01378 0.06615,0.02067 0.08406,0.0124 0.172254,0.0186 0.264583,0.0186 0.30179,0 0.452685,-0.119889 0.452685,-0.359668 z"
                       id="path35306-48"
                       style="fill:#794404;fill-opacity:1"
                       sodipodi:nodetypes="ccsccccccccsccccccscsscccccccscssscscc" />
                  </g>
                  <path
                     id="rect40266-8-0"
                     style="fill:#fbdd84;fill-opacity:1;stroke-width:0;stroke-linejoin:round;paint-order:fill markers stroke"
                     inkscape:transform-center-x="-0.84572906"
                     inkscape:transform-center-y="3.1088671"
                     d="m 301.71733,409.58838 -26.21733,11.771 18.67821,9.49857 1.89,1.24966 c 0,0 2.79457,2.07978 5.44245,5.35537 2.64788,3.27559 26.90426,-8.95365 25.95822,-12.53557 -0.94605,-3.58192 -9.71886,-7.96311 -9.71886,-7.96311 z"
                     transform="scale(0.26458333)"
                     sodipodi:nodetypes="cccczzcc" />
                </g>
              </g>
            </g>
            <g
               id="g2768-7"
               transform="translate(40.8721,2.705303)">
              <path
                 id="path1236-5"
                 style="color:#000000;fill:#d7cece;fill-opacity:1;stroke:none;stroke-width:1;stroke-linecap:round;stroke-opacity:1;-inkscape-stroke:none"
                 d="m 123.03125,112.18337 -4.70721,2.43551 16.06465,9.18756 v -15.76338 z"
                 sodipodi:nodetypes="ccccc" />
              <g
                 id="g3579-4"
                 transform="translate(-25.239728,-11.197135)">
                <g
                   id="g52949-0-82"
                   transform="translate(76.951048,15.879248)">
                  <path
                     id="rect43091-5-9-3"
                     style="fill:#43aa8b;fill-opacity:1;stroke-width:0;stroke-linejoin:round;paint-order:fill markers stroke"
                     d="m 81.715394,91.754799 v 17.198431 l 0.34476,0.49248 c 0,0 2.291256,-0.4441 2.562948,-0.97513 0.01752,-0.30724 0.03752,-0.62186 0.03336,-0.92708 0.04791,-4.94517 0.242061,-9.972742 0.254777,-14.87506 z" />
                  <path
                     id="rect43091-9-9"
                     style="fill:#126e5d;stroke-width:0;stroke-linejoin:round;paint-order:fill markers stroke"
                     d="m 72.857709,90.658226 v 3.851444 l -1.948454,-1.019667 0.154466,14.024637 c -0.005,0.0227 -0.0074,0.0455 -0.01178,0.0682 v 0.85214 c 0.187417,1.03629 1.057839,1.90047 2.615184,2.59158 1.360585,0.60379 6.011503,0.48769 6.011503,0.48769 L 81.88374,109.46572 81.701,90.658216 Z"
                     sodipodi:nodetypes="ccccccscccc" />
                  <path
                     id="rect52413-1-3"
                     style="fill:#43aa8b;fill-opacity:1;stroke:none;stroke-width:0;stroke-linejoin:round;stroke-miterlimit:4;stroke-dasharray:none;paint-order:fill markers stroke"
                     d="m 75.709401,96.898486 0.03293,5.535654 3.545207,7.93359 0.04332,-13.529649 c -0.03764,0.04257 -0.291057,0.247881 -0.397948,0.274997 -0.795263,0.184663 -0.338666,-0.425227 -1.216666,-0.292457 z"
                     sodipodi:nodetypes="ccccccc" />
                  <g
                     aria-label="C"
                     id="text28890-6-7"
                     style="font-size:4.23333px;line-height:1.25;font-family:'Berlin Sans FB Demi';-inkscape-font-specification:'Berlin Sans FB Demi';fill:#addfd0;fill-opacity:1;stroke-width:0.264583"
                     transform="matrix(3.7457019,1.6478135,-2.8725727,2.1486725,24.049055,-251.60973)">
                    <path
                       d="m 87.625822,95.087497 c -0.0081,0.02699 -0.02101,0.0556 -0.04995,0.09143 -0.253559,0.30179 -0.590489,0.452685 -1.01079,0.452685 -0.429947,0 -0.778591,-0.146761 -1.04593,-0.440283 -0.260449,-0.283875 -0.390674,-0.642165 -0.390674,-1.074869 0,-0.418923 0.127469,-0.774457 0.382406,-1.0666 0.265961,-0.305925 0.604269,-0.458887 1.014924,-0.458887 0.446484,0 0.796505,0.137115 1.050064,0.411344 0.02756,0.03032 0.04134,0.05719 0.04134,0.08062 0,0.02618 -0.04823,0.123331 -0.144694,0.291454 -0.09508,0.168121 -0.155028,0.262516 -0.179833,0.283187 -0.01103,0.01103 -0.02481,0.01654 -0.04134,0.01654 -0.0069,0 -0.04134,-0.02756 -0.103353,-0.08268 -0.07441,-0.06615 -0.14745,-0.117823 -0.219108,-0.155029 -0.108865,-0.05512 -0.221864,-0.08268 -0.338997,-0.08268 -0.202571,0 -0.364491,0.07579 -0.485758,0.227376 -0.111621,0.14056 -0.167432,0.314193 -0.167432,0.520898 0,0.209461 0.05581,0.385161 0.167432,0.527099 0.121267,0.15434 0.283187,0.23151 0.485758,0.23151 0.119889,0 0.233577,-0.02618 0.341064,-0.07855 0.07028,-0.03445 0.141938,-0.08268 0.214974,-0.144694 0.05242,-0.04828 0.06485,-0.06196 0.09028,-0.05299 0.02205,0.02481 0.09848,0.05278 0.256609,0.244521 0.09811,0.115242 0.130854,0.174962 0.135062,0.20731 z"
                       id="path35303-2-0"
                       style="fill:#addfd0;fill-opacity:1"
                       sodipodi:nodetypes="ccscscscsccsscscscscccccc" />
                  </g>
                  <g
                     aria-label="C"
                     id="text28890-9-3-9"
                     style="font-size:4.23333px;line-height:1.25;font-family:'Berlin Sans FB Demi';-inkscape-font-specification:'Berlin Sans FB Demi';fill:#addfd0;fill-opacity:1;stroke-width:0.264583"
                     transform="matrix(3.7457019,1.6478135,-2.8725727,2.1486725,24.051174,-251.64551)" />
                </g>
                <rect
                   style="fill:#790406;fill-opacity:1;stroke:none;stroke-width:0.0706699;stroke-linejoin:round;paint-order:fill markers stroke"
                   id="rect36471-2-1"
                   width="3.5019391"
                   height="5.3978968"
                   x="169.04314"
                   y="116.99333" />
                <path
                   id="rect36471-1-2-1"
                   style="fill:#790406;stroke-width:0.157985;stroke-linejoin:round;paint-order:fill markers stroke"
                   d="m 159.38745,113.98181 7.45845,3.84882 -1e-5,11.33884 -7.45844,-4.0778 z"
                   sodipodi:nodetypes="ccccc" />
                <path
                   id="rect36471-1-5-4-4"
                   style="fill:#fa6c8e;fill-opacity:1;stroke:none;stroke-width:0.16498;stroke-linejoin:round;paint-order:fill markers stroke"
                   d="m 165.58951,110.56408 c -0.79122,0.0743 -0.87192,0.11205 -1.55566,0.33372 -0.97853,0.43572 -1.40812,0.65797 -2.15885,1.16905 -1.27194,0.86588 -2.48755,1.91496 -2.48755,1.91496 3.13974,1.69772 5.75661,3.02116 9.02509,4.6258 l 6.19113,-3.34638 -0.43512,-0.42537 -7.46457,-4.00984 c -0.0221,-0.0106 -0.0415,-0.0229 -0.0642,-0.0332 -0.0153,-0.007 -0.0298,-0.0116 -0.0449,-0.0181 l -0.12173,-0.0567 -0.003,0.007 c -0.2814,-0.10802 -0.28645,-0.14529 -0.88025,-0.16119 z"
                   sodipodi:nodetypes="ccsccccccccccc" />
                <g
                   aria-label="P"
                   id="text30082-9-5"
                   style="font-size:4.23333px;line-height:1.25;font-family:'Berlin Sans FB Demi';-inkscape-font-specification:'Berlin Sans FB Demi';fill:#f94144;fill-opacity:1;stroke-width:0.264583"
                   transform="matrix(3.4699492,-2.3622197,0,3.9777288,-122.49672,-81.378808)">
                  <path
                     d="m 85.788334,100.79298 c 0,0.33348 -0.0618,0.5179 -0.236804,0.72461 -0.187413,0.21911 -0.445794,0.32866 -0.775145,0.32866 -0.05512,0 -0.138491,-0.003 -0.250114,-0.008 -0.110243,-0.007 -0.192926,-0.0327 -0.248047,-0.0327 -0.05925,0 -0.08888,0.0765 -0.08888,0.0765 l -0.0062,0.61181 c 0,0 -0.210151,-0.003 -0.378271,-0.008 -0.168121,-0.004 -0.285989,0.0137 -0.378272,-0.006 -0.05808,-0.0124 -0.05994,-0.0599 -0.05994,-0.0599 l 0.0186,-2.819467 c 0,0 0.34451,-0.02067 0.711067,-0.02067 0.216352,0 0.340181,0.01766 0.622184,0.07559 0.394091,0.122581 0.551231,0.223987 0.751046,0.419667 0.20395,0.2012 0.318781,0.39353 0.318781,0.71875 z m -0.799043,-0.0526 c 0,-0.32109 -0.156407,-0.48163 -0.469221,-0.48163 -0.220486,0 -0.336241,-0.01 -0.347266,0.0148 -0.01873,0.26141 -0.0179,0.43099 -0.01037,0.66766 0.0041,0.0827 0.0062,0.14538 0.0062,0.1881 0,0.0275 0.124023,0.0637 0.37207,0.0637 0.299034,0 0.448551,-0.15089 0.448551,-0.45268 z"
                     id="path35300-0-1"
                     style="fill:#f94144;fill-opacity:1"
                     sodipodi:nodetypes="ccscscccsccscccccscccscc" />
                </g>
                <g
                   aria-label="P"
                   id="text30082-8-2-6"
                   style="font-size:4.23333px;line-height:1.25;font-family:'Berlin Sans FB Demi';-inkscape-font-specification:'Berlin Sans FB Demi';fill:#f94144;fill-opacity:1;stroke-width:0.264583"
                   transform="matrix(3.4699492,-2.3622197,0,3.9777288,-130.17557,-84.970625)" />
                <g
                   id="g43067-0-6"
                   transform="translate(78.425473,6.1693789)">
                  <path
                     id="path35306-4-21-6"
                     style="font-size:4.23333px;line-height:1.25;font-family:'Berlin Sans FB Demi';-inkscape-font-specification:'Berlin Sans FB Demi';fill:#f8961e;fill-opacity:1;stroke-width:3.62664"
                     d="m 300.3457,430.86328 -5.9082,3.1543 c 0.98976,7.37293 4.44727,22.72461 4.44727,22.72461 l 7.8125,23.33789 25.47461,-13.60352 -0.34766,-1.04101 c -0.40565,-1.46483 -1.41843,-4.53838 -3.04102,-9.22071 -0.5764,-1.66341 -0.87404,-2.51963 -1.29687,-3.73828 l -1.92383,-5.74804 c 0.0638,-0.19872 0.25722,-0.34054 0.58594,-0.42188 2.0038,-0.56345 3.37822,-1.51863 4.12304,-2.86523 0.74484,-1.34657 1.11719,-3.48834 1.11719,-6.42579 0,-4.40624 -1.0822,-8.56206 -3.9727,-12.46302 -4.9586,-8.38366 -27.13322,-11.83464 -27.07027,6.31068 z"
                     transform="scale(0.26458333)"
                     sodipodi:nodetypes="ccccccscccsscc" />
                  <path
                     id="path35306-4-2-3-6"
                     style="font-size:4.23333px;line-height:1.25;font-family:'Berlin Sans FB Demi';-inkscape-font-specification:'Berlin Sans FB Demi';fill:#f8961e;fill-opacity:1;stroke-width:3.62664"
                     d="m 279.53906,434.18359 v 7.16016 l 0.82813,2.47266 -0.82813,0.4414 v 6.52735 l 5.95899,17.80078 22.21875,-11.86524 v -11.61328 c -0.0478,-0.13808 -0.0839,-0.24572 -0.13282,-0.38672 -0.5764,-1.6634 -0.87404,-2.51965 -1.29687,-3.73828 l -1.92383,-5.74804 c 0.0638,-0.19881 0.25723,-0.34054 0.58594,-0.42188 0.61433,-0.17275 1.16805,-0.38253 1.66406,-0.62891 z"
                     transform="scale(0.26458333)" />
                  <g
                     aria-label="R"
                     id="text27764-5-7"
                     style="font-size:4.23333px;line-height:1.25;font-family:'Berlin Sans FB Demi';-inkscape-font-specification:'Berlin Sans FB Demi';fill:#794404;fill-opacity:1;stroke-width:0.264583"
                     transform="matrix(3.4047664,1.8458858,0,3.8629859,-178.75525,-383.46834)">
                    <path
                       d="m 76.355561,95.648435 c 0,0.0096 -0.01378,0.01654 -0.04134,0.02067 -0.05237,0.0083 -0.183969,0.0124 -0.394808,0.0124 -0.180523,0 -0.303168,-0.0041 -0.367935,-0.0124 -0.03032,-0.0041 -0.04755,-0.0076 -0.05168,-0.01034 -0.0083,-0.0041 -0.01791,-0.01791 -0.02894,-0.04134 -0.02067,-0.05374 -0.05098,-0.133666 -0.09095,-0.239778 -0.05375,-0.137804 -0.137807,-0.341065 -0.252181,-0.609782 -0.02481,-0.05375 -0.08199,-0.08337 -0.171565,-0.08888 0.04134,0.0027 -0.270865,-0.01971 -0.270865,-0.01971 l 0.0021,1.013899 c 0,0 -0.208083,0.0083 -0.380338,0.0083 -0.197059,0 -0.355533,-0.0124 -0.355533,-0.0124 l -0.05994,-0.06408 0.0041,-2.738849 -0.0021,-0.02894 0.06408,-0.04754 c 0,0 0.256313,-0.01654 0.632519,-0.02481 0.254937,-0.0055 0.458197,-0.0083 0.609781,-0.0083 0.314193,0 0.570508,0.07097 0.768945,0.212907 0.22462,0.159852 0.33693,0.390673 0.33693,0.692464 0,0.201193 -0.02894,0.361735 -0.08682,0.481624 -0.05788,0.119889 -0.164678,0.236333 -0.320393,0.349332 -0.03169,0.02205 -0.04754,0.04272 -0.04754,0.06201 0,-0.0014 0.08406,0.171544 0.25218,0.518831 0.168121,0.347265 0.252181,0.538812 0.252181,0.574641 z m -0.868163,-1.854149 c 0,-0.168121 -0.05512,-0.284565 -0.165365,-0.349332 -0.08544,-0.04961 -0.219107,-0.07441 -0.401008,-0.07441 -0.130914,0 -0.200505,0.01998 -0.208773,0.05994 -0.0083,0.04685 -0.0124,0.181901 -0.0124,0.405143 0,0.03169 7e-4,0.07855 0.0021,0.14056 0.0014,0.06201 0.0021,0.108178 0.0021,0.138493 0,0.0069 0.02205,0.01378 0.06615,0.02067 0.08406,0.0124 0.172254,0.0186 0.264583,0.0186 0.30179,0 0.452685,-0.119889 0.452685,-0.359668 z"
                       id="path35306-48-2"
                       style="fill:#794404;fill-opacity:1"
                       sodipodi:nodetypes="ccsccccccccsccccccscsscccccccscssscscc" />
                  </g>
                  <path
                     id="rect40266-8-0-5"
                     style="fill:#fbdd84;fill-opacity:1;stroke-width:0;stroke-linejoin:round;paint-order:fill markers stroke"
                     inkscape:transform-center-x="-0.84572906"
                     inkscape:transform-center-y="3.1088671"
                     d="m 301.71733,409.58838 -26.21733,11.771 18.67821,9.49857 1.89,1.24966 c 0,0 2.79457,2.07978 5.44245,5.35537 2.64788,3.27559 26.90426,-8.95365 25.95822,-12.53557 -0.94605,-3.58192 -9.71886,-7.96311 -9.71886,-7.96311 z"
                     transform="scale(0.26458333)"
                     sodipodi:nodetypes="cccczzcc" />
                </g>
              </g>
            </g>
            <g
               id="g2768-7-5"
               transform="translate(50.826493,-35.51476)">
              <g
                 id="g3579-4-5"
                 transform="matrix(1.1315625,0,0,1.1315625,-56.122946,-28.807875)">
                <g
                   id="g52949-0-82-5"
                   transform="translate(76.951048,15.879248)">
                  <path
                     id="rect43091-5-9-3-4"
                     style="fill:#43aa8b;fill-opacity:1;stroke-width:0;stroke-linejoin:round;paint-order:fill markers stroke"
                     d="m 81.715394,91.754799 v 17.198431 l 0.34476,0.49248 c 0,0 2.291256,-0.4441 2.562948,-0.97513 0.01752,-0.30724 0.03752,-0.62186 0.03336,-0.92708 0.04791,-4.94517 0.242061,-9.972742 0.254777,-14.87506 z" />
                  <path
                     id="rect43091-9-9-9"
                     style="fill:#126e5d;stroke-width:0;stroke-linejoin:round;paint-order:fill markers stroke"
                     d="m 72.857709,90.658226 v 3.851444 l -1.948454,-1.019667 0.154466,14.024637 c -0.005,0.0227 -0.0074,0.0455 -0.01178,0.0682 v 0.85214 c 0.187417,1.03629 1.057839,1.90047 2.615184,2.59158 1.360585,0.60379 6.011503,0.48769 6.011503,0.48769 L 81.88374,109.46572 81.701,90.658216 Z"
                     sodipodi:nodetypes="ccccccscccc" />
                  <path
                     id="rect52413-1-3-0"
                     style="fill:#43aa8b;fill-opacity:1;stroke:none;stroke-width:0;stroke-linejoin:round;stroke-miterlimit:4;stroke-dasharray:none;paint-order:fill markers stroke"
                     d="m 75.709401,96.898486 0.03293,5.535654 3.545207,7.93359 0.04332,-13.529649 c -0.03764,0.04257 -0.291057,0.247881 -0.397948,0.274997 -0.795263,0.184663 -0.338666,-0.425227 -1.216666,-0.292457 z"
                     sodipodi:nodetypes="ccccccc" />
                  <g
                     aria-label="C"
                     id="text28890-6-7-4"
                     style="font-size:4.23333px;line-height:1.25;font-family:'Berlin Sans FB Demi';-inkscape-font-specification:'Berlin Sans FB Demi';fill:#addfd0;fill-opacity:1;stroke-width:0.264583"
                     transform="matrix(3.7457019,1.6478135,-2.8725727,2.1486725,24.049055,-251.60973)">
                    <path
                       d="m 87.625822,95.087497 c -0.0081,0.02699 -0.02101,0.0556 -0.04995,0.09143 -0.253559,0.30179 -0.590489,0.452685 -1.01079,0.452685 -0.429947,0 -0.778591,-0.146761 -1.04593,-0.440283 -0.260449,-0.283875 -0.390674,-0.642165 -0.390674,-1.074869 0,-0.418923 0.127469,-0.774457 0.382406,-1.0666 0.265961,-0.305925 0.604269,-0.458887 1.014924,-0.458887 0.446484,0 0.796505,0.137115 1.050064,0.411344 0.02756,0.03032 0.04134,0.05719 0.04134,0.08062 0,0.02618 -0.04823,0.123331 -0.144694,0.291454 -0.09508,0.168121 -0.155028,0.262516 -0.179833,0.283187 -0.01103,0.01103 -0.02481,0.01654 -0.04134,0.01654 -0.0069,0 -0.04134,-0.02756 -0.103353,-0.08268 -0.07441,-0.06615 -0.14745,-0.117823 -0.219108,-0.155029 -0.108865,-0.05512 -0.221864,-0.08268 -0.338997,-0.08268 -0.202571,0 -0.364491,0.07579 -0.485758,0.227376 -0.111621,0.14056 -0.167432,0.314193 -0.167432,0.520898 0,0.209461 0.05581,0.385161 0.167432,0.527099 0.121267,0.15434 0.283187,0.23151 0.485758,0.23151 0.119889,0 0.233577,-0.02618 0.341064,-0.07855 0.07028,-0.03445 0.141938,-0.08268 0.214974,-0.144694 0.05242,-0.04828 0.06485,-0.06196 0.09028,-0.05299 0.02205,0.02481 0.09848,0.05278 0.256609,0.244521 0.09811,0.115242 0.130854,0.174962 0.135062,0.20731 z"
                       id="path35303-2-0-3"
                       style="fill:#addfd0;fill-opacity:1"
                       sodipodi:nodetypes="ccscscscsccsscscscscccccc" />
                  </g>
                  <g
                     aria-label="C"
                     id="text28890-9-3-9-1"
                     style="font-size:4.23333px;line-height:1.25;font-family:'Berlin Sans FB Demi';-inkscape-font-specification:'Berlin Sans FB Demi';fill:#addfd0;fill-opacity:1;stroke-width:0.264583"
                     transform="matrix(3.7457019,1.6478135,-2.8725727,2.1486725,24.051174,-251.64551)" />
                </g>
                <rect
                   style="fill:#790406;fill-opacity:1;stroke:none;stroke-width:0.0706699;stroke-linejoin:round;paint-order:fill markers stroke"
                   id="rect36471-2-1-1"
                   width="3.5019391"
                   height="5.3978968"
                   x="169.04314"
                   y="116.99333" />
                <path
                   id="rect36471-1-2-1-8"
                   style="fill:#790406;stroke-width:0.157985;stroke-linejoin:round;paint-order:fill markers stroke"
                   d="m 159.38745,113.98181 7.45845,3.84882 -1e-5,11.33884 -7.45844,-4.0778 z"
                   sodipodi:nodetypes="ccccc" />
                <path
                   id="rect36471-1-5-4-4-1"
                   style="fill:#fa6c8e;fill-opacity:1;stroke:none;stroke-width:0.16498;stroke-linejoin:round;paint-order:fill markers stroke"
                   d="m 165.58951,110.56408 c -0.79122,0.0743 -0.87192,0.11205 -1.55566,0.33372 -0.97853,0.43572 -1.40812,0.65797 -2.15885,1.16905 -1.27194,0.86588 -2.48755,1.91496 -2.48755,1.91496 3.13974,1.69772 5.75661,3.02116 9.02509,4.6258 l 6.19113,-3.34638 -0.43512,-0.42537 -7.46457,-4.00984 c -0.0221,-0.0106 -0.0415,-0.0229 -0.0642,-0.0332 -0.0153,-0.007 -0.0298,-0.0116 -0.0449,-0.0181 l -0.12173,-0.0567 -0.003,0.007 c -0.2814,-0.10802 -0.28645,-0.14529 -0.88025,-0.16119 z"
                   sodipodi:nodetypes="ccsccccccccccc" />
                <g
                   aria-label="P"
                   id="text30082-9-5-6"
                   style="font-size:4.23333px;line-height:1.25;font-family:'Berlin Sans FB Demi';-inkscape-font-specification:'Berlin Sans FB Demi';fill:#f94144;fill-opacity:1;stroke-width:0.264583"
                   transform="matrix(3.4699492,-2.3622197,0,3.9777288,-122.49672,-81.378808)">
                  <path
                     d="m 85.788334,100.79298 c 0,0.33348 -0.0618,0.5179 -0.236804,0.72461 -0.187413,0.21911 -0.445794,0.32866 -0.775145,0.32866 -0.05512,0 -0.138491,-0.003 -0.250114,-0.008 -0.110243,-0.007 -0.192926,-0.0327 -0.248047,-0.0327 -0.05925,0 -0.08888,0.0765 -0.08888,0.0765 l -0.0062,0.61181 c 0,0 -0.210151,-0.003 -0.378271,-0.008 -0.168121,-0.004 -0.285989,0.0137 -0.378272,-0.006 -0.05808,-0.0124 -0.05994,-0.0599 -0.05994,-0.0599 l 0.0186,-2.819467 c 0,0 0.34451,-0.02067 0.711067,-0.02067 0.216352,0 0.340181,0.01766 0.622184,0.07559 0.394091,0.122581 0.551231,0.223987 0.751046,0.419667 0.20395,0.2012 0.318781,0.39353 0.318781,0.71875 z m -0.799043,-0.0526 c 0,-0.32109 -0.156407,-0.48163 -0.469221,-0.48163 -0.220486,0 -0.336241,-0.01 -0.347266,0.0148 -0.01873,0.26141 -0.0179,0.43099 -0.01037,0.66766 0.0041,0.0827 0.0062,0.14538 0.0062,0.1881 0,0.0275 0.124023,0.0637 0.37207,0.0637 0.299034,0 0.448551,-0.15089 0.448551,-0.45268 z"
                     id="path35300-0-1-6"
                     style="fill:#f94144;fill-opacity:1"
                     sodipodi:nodetypes="ccscscccsccscccccscccscc" />
                </g>
                <g
                   aria-label="P"
                   id="text30082-8-2-6-4"
                   style="font-size:4.23333px;line-height:1.25;font-family:'Berlin Sans FB Demi';-inkscape-font-specification:'Berlin Sans FB Demi';fill:#f94144;fill-opacity:1;stroke-width:0.264583"
                   transform="matrix(3.4699492,-2.3622197,0,3.9777288,-130.17557,-84.970625)" />
                <g
                   id="g43067-0-6-2"
                   transform="translate(78.425473,6.1693789)">
                  <path
                     id="path35306-4-21-6-0"
                     style="font-size:4.23333px;line-height:1.25;font-family:'Berlin Sans FB Demi';-inkscape-font-specification:'Berlin Sans FB Demi';fill:#f8961e;fill-opacity:1;stroke-width:3.62664"
                     d="m 300.3457,430.86328 -5.9082,3.1543 c 0.98976,7.37293 4.44727,22.72461 4.44727,22.72461 l 7.8125,23.33789 25.47461,-13.60352 -0.34766,-1.04101 c -0.40565,-1.46483 -1.41843,-4.53838 -3.04102,-9.22071 -0.5764,-1.66341 -0.87404,-2.51963 -1.29687,-3.73828 l -1.92383,-5.74804 c 0.0638,-0.19872 0.25722,-0.34054 0.58594,-0.42188 2.0038,-0.56345 3.37822,-1.51863 4.12304,-2.86523 0.74484,-1.34657 1.11719,-3.48834 1.11719,-6.42579 0,-4.40624 -1.0822,-8.56206 -3.9727,-12.46302 -4.9586,-8.38366 -27.13322,-11.83464 -27.07027,6.31068 z"
                     transform="scale(0.26458333)"
                     sodipodi:nodetypes="ccccccscccsscc" />
                  <path
                     id="path35306-4-2-3-6-9"
                     style="font-size:4.23333px;line-height:1.25;font-family:'Berlin Sans FB Demi';-inkscape-font-specification:'Berlin Sans FB Demi';fill:#f8961e;fill-opacity:1;stroke-width:3.62664"
                     d="m 279.53906,434.18359 v 7.16016 l 0.82813,2.47266 -0.82813,0.4414 v 6.52735 l 5.95899,17.80078 22.21875,-11.86524 v -11.61328 c -0.0478,-0.13808 -0.0839,-0.24572 -0.13282,-0.38672 -0.5764,-1.6634 -0.87404,-2.51965 -1.29687,-3.73828 l -1.92383,-5.74804 c 0.0638,-0.19881 0.25723,-0.34054 0.58594,-0.42188 0.61433,-0.17275 1.16805,-0.38253 1.66406,-0.62891 z"
                     transform="scale(0.26458333)" />
                  <g
                     aria-label="R"
                     id="text27764-5-7-8"
                     style="font-size:4.23333px;line-height:1.25;font-family:'Berlin Sans FB Demi';-inkscape-font-specification:'Berlin Sans FB Demi';fill:#794404;fill-opacity:1;stroke-width:0.264583"
                     transform="matrix(3.4047664,1.8458858,0,3.8629859,-178.75525,-383.46834)">
                    <path
                       d="m 76.355561,95.648435 c 0,0.0096 -0.01378,0.01654 -0.04134,0.02067 -0.05237,0.0083 -0.183969,0.0124 -0.394808,0.0124 -0.180523,0 -0.303168,-0.0041 -0.367935,-0.0124 -0.03032,-0.0041 -0.04755,-0.0076 -0.05168,-0.01034 -0.0083,-0.0041 -0.01791,-0.01791 -0.02894,-0.04134 -0.02067,-0.05374 -0.05098,-0.133666 -0.09095,-0.239778 -0.05375,-0.137804 -0.137807,-0.341065 -0.252181,-0.609782 -0.02481,-0.05375 -0.08199,-0.08337 -0.171565,-0.08888 0.04134,0.0027 -0.270865,-0.01971 -0.270865,-0.01971 l 0.0021,1.013899 c 0,0 -0.208083,0.0083 -0.380338,0.0083 -0.197059,0 -0.355533,-0.0124 -0.355533,-0.0124 l -0.05994,-0.06408 0.0041,-2.738849 -0.0021,-0.02894 0.06408,-0.04754 c 0,0 0.256313,-0.01654 0.632519,-0.02481 0.254937,-0.0055 0.458197,-0.0083 0.609781,-0.0083 0.314193,0 0.570508,0.07097 0.768945,0.212907 0.22462,0.159852 0.33693,0.390673 0.33693,0.692464 0,0.201193 -0.02894,0.361735 -0.08682,0.481624 -0.05788,0.119889 -0.164678,0.236333 -0.320393,0.349332 -0.03169,0.02205 -0.04754,0.04272 -0.04754,0.06201 0,-0.0014 0.08406,0.171544 0.25218,0.518831 0.168121,0.347265 0.252181,0.538812 0.252181,0.574641 z m -0.868163,-1.854149 c 0,-0.168121 -0.05512,-0.284565 -0.165365,-0.349332 -0.08544,-0.04961 -0.219107,-0.07441 -0.401008,-0.07441 -0.130914,0 -0.200505,0.01998 -0.208773,0.05994 -0.0083,0.04685 -0.0124,0.181901 -0.0124,0.405143 0,0.03169 7e-4,0.07855 0.0021,0.14056 0.0014,0.06201 0.0021,0.108178 0.0021,0.138493 0,0.0069 0.02205,0.01378 0.06615,0.02067 0.08406,0.0124 0.172254,0.0186 0.264583,0.0186 0.30179,0 0.452685,-0.119889 0.452685,-0.359668 z"
                       id="path35306-48-2-1"
                       style="fill:#794404;fill-opacity:1"
                       sodipodi:nodetypes="ccsccccccccsccccccscsscccccccscssscscc" />
                  </g>
                  <path
                     id="rect40266-8-0-5-8"
                     style="fill:#fbdd84;fill-opacity:1;stroke-width:0;stroke-linejoin:round;paint-order:fill markers stroke"
                     inkscape:transform-center-x="-0.84572906"
                     inkscape:transform-center-y="3.1088671"
                     d="m 301.71733,409.58838 -26.21733,11.771 18.67821,9.49857 1.89,1.24966 c 0,0 2.79457,2.07978 5.44245,5.35537 2.64788,3.27559 26.90426,-8.95365 25.95822,-12.53557 -0.94605,-3.58192 -9.71886,-7.96311 -9.71886,-7.96311 z"
                     transform="scale(0.26458333)"
                     sodipodi:nodetypes="cccczzcc" />
                </g>
              </g>
            </g>
          </g>
        </g>
        <g
           id="g18895"
           inkscape:export-filename="C:\Users\cleme\Desktop\startup\g18895.png"
           inkscape:export-xdpi="96"
           inkscape:export-ydpi="96"
           transform="translate(-39.695967,-41.305387)">
          <path
             id="rect17813"
             style="fill:#000000;fill-opacity:1;stroke:none;stroke-width:0.767627;stroke-linecap:square;stroke-linejoin:bevel;stroke-miterlimit:4;stroke-dasharray:none;stroke-opacity:1;paint-order:normal"
             d="m 134.07987,87.319118 c -0.0382,-0.0013 -0.0655,0.02875 -0.0661,0.07981 l -0.16329,13.179792 c -8.5e-4,0.0681 0.0453,0.14763 0.10386,0.17837 l 16.84652,8.83563 V 96.079218 l -16.6796,-8.747781 c -0.0146,-0.0077 -0.0286,-0.01188 -0.0413,-0.01232 z" />
          <g
             id="g12593">
            <path
               id="rect11048"
               style="stroke-width:0.677706;stroke-linecap:round;stroke-linejoin:round;paint-order:markers fill stroke"
               d="m 127.40143,106.80639 11.58274,6.6451 -10.37957,6.30994 -11.82423,-6.89298 z"
               sodipodi:nodetypes="ccccc" />
            <g
               id="g52949-0-8"
               transform="translate(51.71132,4.682113)">
              <g
                 aria-label="C"
                 id="text28890-6-4-7-0"
                 style="font-size:4.23333px;line-height:1.25;font-family:'Berlin Sans FB Demi';-inkscape-font-specification:'Berlin Sans FB Demi';fill:#000000;fill-opacity:1;stroke-width:0.264583"
                 transform="matrix(3.7368737,1.6478135,-2.8658024,2.1486725,24.20689,-251.12009)">
                <path
                   id="path35303-2-3-9-4"
                   style="fill:#000000;fill-opacity:1"
                   d="m 86.522092,92.459122 c -1.464053,-0.04015 -2.054046,2.082646 -0.982422,2.964844 0.626531,0.57799 1.946363,0.499422 2.246094,-0.367187 -0.09497,-0.30472 -0.506926,-0.843139 -0.814453,-0.451172 -0.582225,0.466809 -1.167634,-0.429199 -0.744141,-0.912109 0.326391,-0.43906 0.787337,0.0547 1.087891,0.132812 0.284538,-0.231492 0.598173,-0.439195 0.351028,-0.823711 -0.338261,-0.438039 -0.804314,-0.542583 -1.143997,-0.543477 z"
                   sodipodi:nodetypes="cccccccc" />
              </g>
              <g
                 aria-label="C"
                 id="text28890-6-4-7"
                 style="font-size:4.23333px;line-height:1.25;font-family:'Berlin Sans FB Demi';-inkscape-font-specification:'Berlin Sans FB Demi';fill:#000000;fill-opacity:1;stroke-width:0.264583"
                 transform="matrix(3.6545454,1.6478135,-2.8026649,2.1486725,26.062194,-251.32436)">
                <path
                   id="path35303-2-3-9"
                   style="fill:#000000;fill-opacity:1;stroke-width:3.53138"
                   d="m 344.52539,198.95312 c -17.07304,0.0707 -34.0529,10.5066 -29.875,21.10157 2.53143,8.59584 21.59427,16.17685 34.91406,11.00586 1.91606,-3.06609 1.92901,-10.00422 -6.4707,-8.73633 -12.98675,0.16487 -11.58201,-10.75682 -0.61719,-12.04102 9.15912,-1.53284 10.29713,5.34734 13.6211,7.85352 1.40019,-0.0237 2.80717,-0.0286 4.1582,-0.0723 v 12.79883 h 9.54687 c -0.47796,-5.549 -0.10492,-11.54736 -0.13085,-17.23047 -0.0322,-5.66397 -5.36254,-9.41432 -10.04493,-11.53711 -4.63989,-2.21346 -9.87512,-3.16423 -15.10156,-3.14258 z"
                   transform="matrix(0.04558713,-0.03496069,0.0594625,0.07753635,58.110676,89.362202)"
                   sodipodi:nodetypes="sccccccccccs" />
              </g>
              <path
                 id="rect43091-5-9-9"
                 style="fill:#000000;fill-opacity:1;stroke-width:0;stroke-linejoin:round;paint-order:fill markers stroke"
                 d="m 354.16016,204.22656 -33.03516,1.12891 -2.47461,13.42773 -7.83008,-1.66406 0.62696,50.81641 c -0.02,0.0858 -0.0295,0.17201 -0.0469,0.25781 v 3.2207 c 0.75257,3.91669 4.24656,7.18286 10.5,9.79492 5.46336,2.28205 17.64574,3.68314 24.13867,1.84375 0.29031,-6.84102 0.11719,-19.89453 0.11719,-19.89453 l 8.73828,12.15235 -0.0117,-1.04297 0.67774,0.9668 c 0,0 8.66063,-1.67851 9.6875,-3.68555 0.0662,-1.16122 0.14072,-2.35032 0.125,-3.50391 0.18107,-18.6904 0.91483,-37.69226 0.96289,-56.2207 l -12.07813,-3.45313 v 5.3086 z"
                 transform="matrix(0.26458333,0,0,0.26458333,-12.015353,36.623274)" />
              <path
                 id="rect52413-1-1"
                 style="fill:#000000;fill-opacity:1;stroke:none;stroke-width:0;stroke-linejoin:round;stroke-miterlimit:4;stroke-dasharray:none;paint-order:fill markers stroke"
                 d="m 75.709401,96.898486 0.03293,5.535654 3.545207,7.93359 0.04332,-13.529649 c -0.03764,0.04257 -0.291057,0.247881 -0.397948,0.274997 -0.795263,0.184663 -0.338666,-0.425227 -1.216666,-0.292457 z"
                 sodipodi:nodetypes="ccccccc" />
              <g
                 aria-label="C"
                 id="text28890-6-4"
                 style="font-size:4.23333px;line-height:1.25;font-family:'Berlin Sans FB Demi';-inkscape-font-specification:'Berlin Sans FB Demi';fill:#ffffff;fill-opacity:1;stroke-width:0.264583"
                 transform="matrix(3.7457019,1.6478135,-2.8725727,2.1486725,24.049055,-251.60973)">
                <path
                   d="m 87.625822,95.087497 c -0.0081,0.02699 -0.02101,0.0556 -0.04995,0.09143 -0.253559,0.30179 -0.590489,0.452685 -1.01079,0.452685 -0.429947,0 -0.778591,-0.146761 -1.04593,-0.440283 -0.260449,-0.283875 -0.390674,-0.642165 -0.390674,-1.074869 0,-0.418923 0.127469,-0.774457 0.382406,-1.0666 0.265961,-0.305925 0.604269,-0.458887 1.014924,-0.458887 0.446484,0 0.796505,0.137115 1.050064,0.411344 0.02756,0.03032 0.04134,0.05719 0.04134,0.08062 0,0.02618 -0.04823,0.123331 -0.144694,0.291454 -0.09508,0.168121 -0.155028,0.262516 -0.179833,0.283187 -0.01103,0.01103 -0.02481,0.01654 -0.04134,0.01654 -0.0069,0 -0.04134,-0.02756 -0.103353,-0.08268 -0.07441,-0.06615 -0.14745,-0.117823 -0.219108,-0.155029 -0.108865,-0.05512 -0.221864,-0.08268 -0.338997,-0.08268 -0.202571,0 -0.364491,0.07579 -0.485758,0.227376 -0.111621,0.14056 -0.167432,0.314193 -0.167432,0.520898 0,0.209461 0.05581,0.385161 0.167432,0.527099 0.121267,0.15434 0.283187,0.23151 0.485758,0.23151 0.119889,0 0.233577,-0.02618 0.341064,-0.07855 0.07028,-0.03445 0.141938,-0.08268 0.214974,-0.144694 0.05242,-0.04828 0.06485,-0.06196 0.09028,-0.05299 0.02205,0.02481 0.09848,0.05278 0.256609,0.244521 0.09811,0.115242 0.130854,0.174962 0.135062,0.20731 z"
                   id="path35303-2-3"
                   style="fill:#ffffff;fill-opacity:1"
                   sodipodi:nodetypes="ccscscscsccsscscscscccccc" />
              </g>
              <g
                 aria-label="C"
                 id="text28890-9-3-0"
                 style="font-size:4.23333px;line-height:1.25;font-family:'Berlin Sans FB Demi';-inkscape-font-specification:'Berlin Sans FB Demi';fill:#addfd0;fill-opacity:1;stroke-width:0.264583"
                 transform="matrix(3.7457019,1.6478135,-2.8725727,2.1486725,24.051174,-251.64551)" />
            </g>
            <g
               id="g39372-8-4"
               transform="matrix(0.81229756,0,0,0.81229756,62.592481,26.091507)">
              <rect
                 style="fill:#fffdfe;fill-opacity:1;stroke:none;stroke-width:0.087;stroke-linejoin:round;paint-order:fill markers stroke"
                 id="rect36471-2-2"
                 width="4.3111529"
                 height="6.6452212"
                 x="100.50199"
                 y="97.728577" />
              <path
                 id="rect36471-1-5-4-2"
                 style="fill:#ffffff;fill-opacity:1;stroke:none;stroke-width:0.767631;stroke-linejoin:round;paint-order:fill markers stroke"
                 d="m 363.78074,339.45328 c -3.68146,0.34558 -4.05693,0.52134 -7.23828,1.55273 -4.55302,2.02738 -6.55186,3.0615 -10.04492,5.43946 -5.91817,4.02887 -11.57426,8.91011 -11.57426,8.91011 14.60886,7.8993 26.78482,14.05711 41.9927,21.52333 l 28.80664,-15.57032 -2.02457,-1.97922 -34.7318,-18.65734 c -0.10261,-0.0493 -0.19326,-0.10678 -0.29883,-0.1543 -0.0712,-0.0314 -0.13844,-0.0538 -0.20899,-0.084 l -0.5664,-0.26368 -0.0156,0.0332 c -1.3093,-0.50259 -1.3328,-0.676 -4.0957,-0.75 z"
                 transform="scale(0.26458333)"
                 sodipodi:nodetypes="ccsccccccccccc" />
              <g
                 aria-label="P"
                 id="text30082-9-6"
                 style="font-size:4.23333px;line-height:1.25;font-family:'Berlin Sans FB Demi';-inkscape-font-specification:'Berlin Sans FB Demi';fill:#000000;fill-opacity:1;stroke-width:0.264583"
                 transform="matrix(4.271771,-2.9080719,0,4.8968863,-258.40571,-146.4826)" />
              <g
                 aria-label="P"
                 id="text30082-8-2-3"
                 style="font-size:4.23333px;line-height:1.25;font-family:'Berlin Sans FB Demi';-inkscape-font-specification:'Berlin Sans FB Demi';fill:#f94144;fill-opacity:1;stroke-width:0.264583"
                 transform="matrix(4.271771,-2.9080719,0,4.8968863,-267.85896,-150.9044)" />
              <path
                 id="rect36471-1-2-8"
                 style="fill:#000000;fill-opacity:1;stroke-width:0.597109;stroke-linejoin:round;paint-order:fill markers stroke"
                 d="m 358.5957,231.15234 v 41.99024 l 23.01134,16.98142 c 0.0705,0.17804 5.30467,2.001 5.70271,1.85415 1.23872,-0.45699 2.77249,-1.20526 4.97736,-2.64612 2.20485,-1.42582 4.96094,-3.25781 4.96094,-3.25781 l 0.082,-13.25195 c 0,0 0.38896,-1.41438 1.16601,-1.94336 0.7229,-0.49213 1.80615,-0.84559 3.25196,-1.72461 1.46391,-0.92141 2.55836,-1.61922 3.28125,-2.11133 4.31936,-2.94047 7.70813,-6.89401 10.16601,-11.86133 2.29333,-4.66643 3.10419,-7.98918 3.10547,-12.99609 0,-4.88934 -1.50688,-6.75504 -4.18164,-7.95899 -2.62053,-1.15787 -4.6812,-1.27911 -9.84961,0.39649 -3.6984,1.64682 -5.32275,2.48636 -8.16015,4.41797 -4.80732,3.27264 -9.32422,6.6582 -9.32422,6.6582 z m 46.69922,12.77735 c 1.68366,-0.0349 2.52539,1.49348 2.52539,4.58593 0,4.5371 -1.96105,8.14075 -5.88281,10.81055 -3.25308,2.21458 -4.87891,2.77672 -4.87891,2.36328 0,-0.64225 -0.0283,-1.56478 -0.082,-2.77148 -0.0987,-3.49085 -0.10892,-6.03362 0.13672,-10.13086 0.14459,-0.47127 1.66307,-1.35375 4.55469,-3.32227 1.47433,-1.00367 2.68246,-1.5156 3.62695,-1.53515 z"
                 transform="matrix(0.32572218,0,0,0.32572218,-28.187348,18.729442)"
                 sodipodi:nodetypes="cccscccscsccccsccssssccsss" />
            </g>
            <g
               id="g43067-0-2"
               transform="translate(53.185745,-4.2340062)">
              <path
                 id="path35306-4-21-0"
                 style="font-size:4.23333px;line-height:1.25;font-family:'Berlin Sans FB Demi';-inkscape-font-specification:'Berlin Sans FB Demi';fill:#ffffff;fill-opacity:1;stroke-width:3.62664"
                 d="m 352.70312,237.4707 -26.21874,11.77149 18.67968,9.49804 1.88867,1.25 c 0,0 0.32601,0.25712 0.77149,0.62696 l -2.40234,1.2832 c 0.98975,7.37293 4.44726,22.72461 4.44726,22.72461 l 7.8125,23.33789 25.47461,-13.60351 -0.34766,-1.04102 c -0.40565,-1.46483 -1.41842,-4.53837 -3.04101,-9.2207 -0.5764,-1.66341 -0.87405,-2.51964 -1.29688,-3.73828 l -1.92382,-5.74805 c 0.0638,-0.19872 0.25721,-0.34054 0.58593,-0.42188 2.0038,-0.56345 3.37823,-1.51863 4.12305,-2.86523 0.74484,-1.34657 1.11719,-3.48833 1.11719,-6.42578 0,-4.40624 -1.08216,-8.56193 -3.97266,-12.46289 -0.0772,-0.13062 -0.1704,-0.25661 -0.25586,-0.38477 -1.82037,-3.41242 -9.41015,-7.20312 -9.41015,-7.20312 z"
                 transform="matrix(0.26458333,0,0,0.26458333,-13.489778,45.539393)" />
              <path
                 id="path35306-4-2-3-4"
                 style="font-size:4.23333px;line-height:1.25;font-family:'Berlin Sans FB Demi';-inkscape-font-specification:'Berlin Sans FB Demi';fill:#ffffff;fill-opacity:1;stroke-width:3.62664"
                 d="m 279.53906,434.18359 v 7.16016 l 0.82813,2.47266 -0.82813,0.4414 v 6.52735 l 5.95899,17.80078 22.21875,-11.86524 v -11.61328 c -0.0478,-0.13808 -0.0839,-0.24572 -0.13282,-0.38672 -0.5764,-1.6634 -0.87404,-2.51965 -1.29687,-3.73828 l -1.92383,-5.74804 c 0.0638,-0.19881 0.25723,-0.34054 0.58594,-0.42188 0.61433,-0.17275 1.16805,-0.38253 1.66406,-0.62891 z"
                 transform="scale(0.26458333)" />
              <g
                 aria-label="R"
                 id="text27764-5-3"
                 style="font-size:4.23333px;line-height:1.25;font-family:'Berlin Sans FB Demi';-inkscape-font-specification:'Berlin Sans FB Demi';fill:#000000;fill-opacity:1;stroke-width:0.264583"
                 transform="matrix(3.4047664,1.8458858,0,3.8629859,-178.75525,-383.46834)">
                <path
                   d="m 76.355561,95.648435 c 0,0.0096 -0.01378,0.01654 -0.04134,0.02067 -0.05237,0.0083 -0.183969,0.0124 -0.394808,0.0124 -0.180523,0 -0.303168,-0.0041 -0.367935,-0.0124 -0.03032,-0.0041 -0.04755,-0.0076 -0.05168,-0.01034 -0.0083,-0.0041 -0.01791,-0.01791 -0.02894,-0.04134 -0.02067,-0.05374 -0.05098,-0.133666 -0.09095,-0.239778 -0.05375,-0.137804 -0.137807,-0.341065 -0.252181,-0.609782 -0.02481,-0.05375 -0.08199,-0.08337 -0.171565,-0.08888 0.04134,0.0027 -0.270865,-0.01971 -0.270865,-0.01971 l 0.0021,1.013899 c 0,0 -0.208083,0.0083 -0.380338,0.0083 -0.197059,0 -0.355533,-0.0124 -0.355533,-0.0124 l -0.05994,-0.06408 0.0041,-2.738849 -0.0021,-0.02894 0.06408,-0.04754 c 0,0 0.256313,-0.01654 0.632519,-0.02481 0.254937,-0.0055 0.458197,-0.0083 0.609781,-0.0083 0.314193,0 0.570508,0.07097 0.768945,0.212907 0.22462,0.159852 0.33693,0.390673 0.33693,0.692464 0,0.201193 -0.02894,0.361735 -0.08682,0.481624 -0.05788,0.119889 -0.164678,0.236333 -0.320393,0.349332 -0.03169,0.02205 -0.04754,0.04272 -0.04754,0.06201 0,-0.0014 0.08406,0.171544 0.25218,0.518831 0.168121,0.347265 0.252181,0.538812 0.252181,0.574641 z m -0.868163,-1.854149 c 0,-0.168121 -0.05512,-0.284565 -0.165365,-0.349332 -0.08544,-0.04961 -0.219107,-0.07441 -0.401008,-0.07441 -0.130914,0 -0.200505,0.01998 -0.208773,0.05994 -0.0083,0.04685 -0.0124,0.181901 -0.0124,0.405143 0,0.03169 7e-4,0.07855 0.0021,0.14056 0.0014,0.06201 0.0021,0.108178 0.0021,0.138493 0,0.0069 0.02205,0.01378 0.06615,0.02067 0.08406,0.0124 0.172254,0.0186 0.264583,0.0186 0.30179,0 0.452685,-0.119889 0.452685,-0.359668 z"
                   id="path35306-48-1"
                   style="fill:#000000;fill-opacity:1"
                   sodipodi:nodetypes="ccsccccccccsccccccscsscccccccscssscscc" />
              </g>
            </g>
          </g>
        </g>
        <g
           id="g12593-6"
           transform="translate(1.282926,-39.623401)">
          <g
             id="g52949-0-8-3"
             transform="translate(51.71132,4.682113)">
            <g
               aria-label="C"
               id="text28890-6-4-7-0-8"
               style="font-size:4.23333px;line-height:1.25;font-family:'Berlin Sans FB Demi';-inkscape-font-specification:'Berlin Sans FB Demi';fill:#000000;fill-opacity:1;stroke-width:0.264583"
               transform="matrix(3.7368737,1.6478135,-2.8658024,2.1486725,24.20689,-251.12009)">
              <path
                 id="path35303-2-3-9-4-2"
                 style="fill:#000000;fill-opacity:1"
                 d="m 86.522092,92.459122 c -1.464053,-0.04015 -2.054046,2.082646 -0.982422,2.964844 0.626531,0.57799 1.946363,0.499422 2.246094,-0.367187 -0.09497,-0.30472 -0.506926,-0.843139 -0.814453,-0.451172 -0.582225,0.466809 -1.167634,-0.429199 -0.744141,-0.912109 0.326391,-0.43906 0.787337,0.0547 1.087891,0.132812 0.284538,-0.231492 0.598173,-0.439195 0.351028,-0.823711 -0.338261,-0.438039 -0.804314,-0.542583 -1.143997,-0.543477 z"
                 sodipodi:nodetypes="cccccccc" />
            </g>
            <g
               aria-label="C"
               id="text28890-6-4-7-8"
               style="font-size:4.23333px;line-height:1.25;font-family:'Berlin Sans FB Demi';-inkscape-font-specification:'Berlin Sans FB Demi';fill:#000000;fill-opacity:1;stroke-width:0.264583"
               transform="matrix(3.6545454,1.6478135,-2.8026649,2.1486725,26.06885,-251.14239)">
              <path
                 id="path35303-2-3-9-0"
                 style="fill:#000000;fill-opacity:1;stroke-width:3.53138"
                 d="m 499.40625,205.31055 c -17.07304,0.0707 -34.0529,10.50659 -29.875,21.10156 2.53143,8.59584 21.59427,16.17685 34.91406,11.00586 1.91606,-3.06609 1.92901,-10.00422 -6.4707,-8.73633 -12.98675,0.16487 -11.58201,-10.75682 -0.61719,-12.04102 9.15912,-1.53283 10.29713,5.34734 13.6211,7.85352 1.40019,-0.0237 2.80717,-0.0286 4.1582,-0.0723 v 12.79882 h 0.77539 c 1.71676,-1.55013 4.95433,-4.34299 8.37695,-6.49414 0.0515,-0.0324 0.0995,-0.06 0.15039,-0.0918 -0.004,-3.54942 0.1292,-7.15584 0.11328,-10.64454 -0.0322,-5.66397 -5.36253,-9.41431 -10.04492,-11.53711 -4.63989,-2.21346 -9.87512,-3.16422 -15.10156,-3.14257 z"
                 transform="matrix(0.04558713,-0.03496069,0.0594625,0.07753635,50.672093,94.284037)" />
            </g>
            <path
               id="rect43091-5-9-9-6"
               style="fill:#ffffff;fill-opacity:1;stroke-width:0;stroke-linejoin:round;paint-order:fill markers stroke"
               d="m 81.925995,90.658217 -8.098956,0.298691 -0.606679,3.552754 -1.919636,-0.440283 0.153707,13.445171 c -0.0049,0.0227 -0.0072,0.0455 -0.0115,0.0682 v 0.85214 c 0.184501,1.03629 1.041093,1.90046 2.574197,2.59157 1.339407,0.60379 4.32606,0.9745 5.917878,0.48783 0.07117,-1.81002 0.02873,-5.26376 0.02873,-5.26376 l 2.142292,3.21531 -0.0029,-0.27596 0.166156,0.2558 c 0,0 2.123255,-0.4441 2.375004,-0.97513 0.01623,-0.30724 0.0345,-0.62186 0.03064,-0.92708 0.04439,-4.94517 0.224281,-9.972742 0.236064,-14.875058 l -2.961095,-0.913641 v 1.404567 z" />
            <path
               id="rect52413-1-1-6"
               style="fill:#000000;fill-opacity:1;stroke:none;stroke-width:0;stroke-linejoin:round;stroke-miterlimit:4;stroke-dasharray:none;paint-order:fill markers stroke"
               d="m 513.47656,237.50977 v 9.02929 l 10.13867,4.66406 c 0,0 7.58979,3.79266 9.41016,7.20508 0.0855,0.12816 0.17861,0.25416 0.25586,0.38477 2.8905,3.90096 3.97266,8.05665 3.97266,12.46289 0,2.93745 -0.37235,5.07921 -1.11719,6.42578 -0.74482,1.3466 -2.11925,2.30179 -4.12305,2.86524 -0.32872,0.0813 -0.52214,0.22315 -0.58594,0.42187 l 1.92383,5.74805 c 0.42283,1.21865 0.72048,2.07487 1.29688,3.73828 0.89504,2.58283 1.56155,4.56416 2.08594,6.16797 0.6985,0.45497 5.02069,2.55058 5.47265,2.35351 1.21027,-0.52774 2.75607,-1.84625 4.96094,-3.28711 2.20485,-1.42582 4.96094,-3.25781 4.96094,-3.25781 l 0.082,-13.25195 c 0,0 0.38896,-1.41438 1.16601,-1.94336 0.7229,-0.49213 1.80615,-0.84559 3.25196,-1.72461 1.46391,-0.92141 2.55836,-1.61922 3.28125,-2.11133 4.31936,-2.94047 7.70813,-6.89401 10.16601,-11.86133 2.29333,-4.66643 3.10419,-7.98918 3.10547,-12.99609 0,-4.88934 -1.50688,-6.75504 -4.18164,-7.95899 -2.62053,-1.15787 -4.6812,-1.27911 -9.84961,0.39649 -3.6984,1.64682 -5.32276,2.48636 -8.16016,4.41797 -4.80732,3.27264 -9.32421,6.6582 -9.32421,6.6582 z m 46.69922,12.77734 c 1.68366,-0.0349 2.52539,1.49349 2.52539,4.58594 0,4.5371 -1.96105,8.14074 -5.88281,10.81054 -3.25308,2.21458 -4.87891,2.77669 -4.87891,2.36329 0,-0.64225 -0.0283,-1.56479 -0.082,-2.77149 -0.0987,-3.49085 -0.10892,-6.03362 0.13672,-10.13086 0.14459,-0.47127 1.66307,-1.35374 4.55469,-3.32226 1.47433,-1.00367 2.68246,-1.51561 3.62695,-1.53516 z"
               transform="matrix(0.26458333,0,0,0.26458333,-52.994246,34.941288)"
               sodipodi:nodetypes="cccccsscccscscccscsccccsccssssccss" />
            <path
               id="path1999"
               style="fill:#000000;fill-opacity:1;stroke:none;stroke-width:0;stroke-linejoin:round;stroke-miterlimit:4;stroke-dasharray:none;paint-order:fill markers stroke"
               d="m 496.7207,204.88086 c -1.69209,-0.005 -3.42561,0.0977 -5.19726,0.30469 -6.78093,0.78474 -12.44396,2.87723 -16.99219,6.27929 -4.69785,3.51398 -6.74575,7.23471 -6.14063,11.16211 0.0206,0.13968 0.0451,0.27993 0.0723,0.41797 h -2.68555 v 53.79688 l 3.9961,4.38476 V 226.25 c 1.59395,2.47751 4.4751,4.63258 8.64453,6.4668 2.58913,1.13901 5.26478,1.94743 8.02734,2.42578 l 0.10742,18.1289 13.53321,-6.07617 0.041,-13 c 0.16626,-0.38939 0.24327,-1.06621 0.14063,-2.21875 -0.15691,-2.54194 -0.93572,-3.24517 -0.97852,-3.58398 -0.26262,-0.23122 -0.58723,-0.19843 -1.85351,-0.13281 -1.70726,0.0487 -3.24431,-0.004 -4.61328,-0.16211 -2.09028,-0.24413 -3.98438,-0.73967 -5.68165,-1.48633 -2.86776,-1.26161 -4.32217,-2.89762 -4.36328,-4.90625 -0.0392,-1.84785 1.07745,-3.62319 3.35157,-5.32422 2.24419,-1.67865 4.91911,-2.73924 8.02539,-3.18555 3.36254,-0.47578 6.47791,-0.0839 9.3457,1.17774 1.65825,0.7295 2.95958,1.65757 3.90234,2.7832 0.61052,0.74843 1.08274,1.62242 1.41797,2.62305 0.27948,0.83384 0.46873,1.27148 0.56641,1.31445 0.23401,0.10295 0.48777,0.14393 0.76367,0.12305 0.57559,-0.0134 2.44976,-0.40654 5.62109,-1.17969 3.19095,-0.76455 4.92866,-1.25224 5.2129,-1.46484 0.25434,-0.19028 0.35004,-0.49424 0.28906,-0.91211 -0.61234,-3.80616 -4.07757,-7.10018 -10.39844,-9.88086 -4.36023,-1.91816 -9.07802,-2.88466 -14.1543,-2.89844 z"
               transform="matrix(0.26458333,0,0,0.26458333,-52.994246,34.941288)" />
            <g
               aria-label="C"
               id="text28890-6-4-2"
               style="font-size:4.23333px;line-height:1.25;font-family:'Berlin Sans FB Demi';-inkscape-font-specification:'Berlin Sans FB Demi';fill:#000000;fill-opacity:1;stroke-width:0.264583"
               transform="matrix(3.7457019,1.6478135,-2.8725727,2.1486725,24.049055,-251.60973)" />
            <g
               aria-label="C"
               id="text28890-9-3-0-2"
               style="font-size:4.23333px;line-height:1.25;font-family:'Berlin Sans FB Demi';-inkscape-font-specification:'Berlin Sans FB Demi';fill:#addfd0;fill-opacity:1;stroke-width:0.264583"
               transform="matrix(3.7457019,1.6478135,-2.8725727,2.1486725,24.051174,-251.64551)" />
          </g>
          <g
             id="g39372-8-4-3"
             transform="matrix(0.81229756,0,0,0.81229756,62.592481,26.091507)">
            <g
               aria-label="P"
               id="text30082-9-6-4"
               style="font-size:4.23333px;line-height:1.25;font-family:'Berlin Sans FB Demi';-inkscape-font-specification:'Berlin Sans FB Demi';fill:#000000;fill-opacity:1;stroke-width:0.264583"
               transform="matrix(4.271771,-2.9080719,0,4.8968863,-258.40571,-146.4826)" />
            <g
               aria-label="P"
               id="text30082-8-2-3-7"
               style="font-size:4.23333px;line-height:1.25;font-family:'Berlin Sans FB Demi';-inkscape-font-specification:'Berlin Sans FB Demi';fill:#f94144;fill-opacity:1;stroke-width:0.264583"
               transform="matrix(4.271771,-2.9080719,0,4.8968863,-267.85896,-150.9044)" />
          </g>
          <g
             id="g43067-0-2-1"
             transform="translate(53.185745,-4.2340062)">
            <g
               aria-label="R"
               id="text27764-5-3-9"
               style="font-size:4.23333px;line-height:1.25;font-family:'Berlin Sans FB Demi';-inkscape-font-specification:'Berlin Sans FB Demi';fill:#000000;fill-opacity:1;stroke-width:0.264583"
               transform="matrix(3.4047664,1.8458858,0,3.8629859,-178.75525,-383.46834)">
              <path
                 d="m 76.355561,95.648435 c 0,0.0096 -0.01378,0.01654 -0.04134,0.02067 -0.05237,0.0083 -0.183969,0.0124 -0.394808,0.0124 -0.180523,0 -0.303168,-0.0041 -0.367935,-0.0124 -0.03032,-0.0041 -0.04755,-0.0076 -0.05168,-0.01034 -0.0083,-0.0041 -0.01791,-0.01791 -0.02894,-0.04134 -0.02067,-0.05374 -0.05098,-0.133666 -0.09095,-0.239778 -0.05375,-0.137804 -0.137807,-0.341065 -0.252181,-0.609782 -0.02481,-0.05375 -0.08199,-0.08337 -0.171565,-0.08888 0.04134,0.0027 -0.270865,-0.01971 -0.270865,-0.01971 l 0.0021,1.013899 c 0,0 -0.208083,0.0083 -0.380338,0.0083 -0.197059,0 -0.355533,-0.0124 -0.355533,-0.0124 l -0.05994,-0.06408 0.0041,-2.738849 -0.0021,-0.02894 0.06408,-0.04754 c 0,0 0.256313,-0.01654 0.632519,-0.02481 0.254937,-0.0055 0.458197,-0.0083 0.609781,-0.0083 0.314193,0 0.570508,0.07097 0.768945,0.212907 0.22462,0.159852 0.33693,0.390673 0.33693,0.692464 0,0.201193 -0.02894,0.361735 -0.08682,0.481624 -0.05788,0.119889 -0.164678,0.236333 -0.320393,0.349332 -0.03169,0.02205 -0.04754,0.04272 -0.04754,0.06201 0,-0.0014 0.08406,0.171544 0.25218,0.518831 0.168121,0.347265 0.252181,0.538812 0.252181,0.574641 z m -0.868163,-1.854149 c 0,-0.168121 -0.05512,-0.284565 -0.165365,-0.349332 -0.08544,-0.04961 -0.219107,-0.07441 -0.401008,-0.07441 -0.130914,0 -0.200505,0.01998 -0.208773,0.05994 -0.0083,0.04685 -0.0124,0.181901 -0.0124,0.405143 0,0.03169 7e-4,0.07855 0.0021,0.14056 0.0014,0.06201 0.0021,0.108178 0.0021,0.138493 0,0.0069 0.02205,0.01378 0.06615,0.02067 0.08406,0.0124 0.172254,0.0186 0.264583,0.0186 0.30179,0 0.452685,-0.119889 0.452685,-0.359668 z"
                 id="path35306-48-1-8"
                 style="fill:#000000;fill-opacity:1"
                 sodipodi:nodetypes="ccsccccccccsccccccscsscccccccscssscscc" />
            </g>
          </g>
        </g>
      </g>
    </g>
  </g>
</svg>
